<svg xmlns="http://www.w3.org/2000/svg" width="63" height="76" viewBox="0 0 63 76" xmlns:xlink="http://www.w3.org/1999/xlink">
  <use fill="#EB3441" xlink:href="#a" transform="translate(9.78 16.725)"/>
  <g fill="#002543">
    <g transform="translate(1 1)">
      <use xlink:href="#b"/>
      <use xlink:href="#c"/>
    </g>
    <g transform="translate(9.962 15.148)">
      <use xlink:href="#d"/>
      <use xlink:href="#e"/>
    </g>
    <g transform="translate(9.963 15.145)">
      <use xlink:href="#f"/>
      <use xlink:href="#g"/>
    </g>
    <g transform="translate(9.963 21.038)">
      <use xlink:href="#h"/>
      <use xlink:href="#i"/>
    </g>
    <g transform="translate(9.963 26.93)">
      <use xlink:href="#j"/>
      <use xlink:href="#k"/>
    </g>
  </g>
  <defs>
    <path id="a" d="M0 38.388V24.05l6.008-5.088 4.62 5.088 12.478-12.025 3.697 3.237L44.363 0v37.462L0 38.387z"/>
    <path id="b" d="M57.053 5.753H37.687C37.004 2.473 34.04 0 30.5 0c-3.54 0-6.504 2.474-7.188 5.753H3.946C1.77 5.753 0 7.49 0 9.625v41.13c0 2.133 1.77 3.87 3.946 3.87h18.398l-5.976 17.47c-.258.756.158 1.575.928 1.83.156.05.314.075.47.075.615 0 1.19-.382 1.396-.986l6.29-18.39h10.096l6.29 18.39c.207.604.78.986 1.396.986.156 0 .313-.025.47-.076.77-.254 1.186-1.073.927-1.83l-5.97-17.47h18.4c2.18 0 3.95-1.736 3.95-3.87V9.624c0-2.133-1.77-3.87-3.94-3.87zM30.5 2.89c1.905 0 3.53 1.197 4.136 2.863h-8.272c.606-1.666 2.23-2.862 4.136-2.862zm27.553 47.865c0 .54-.448.98-1 .98h-3.848V31.13c0-.798-.66-1.445-1.473-1.445-.813 0-1.473.647-1.473 1.446v20.61h-4.53V35.56c0-.798-.66-1.445-1.48-1.445s-1.48.647-1.48 1.445v16.18h-4.13V40.28c0-.798-.66-1.445-1.48-1.445-.81 0-1.47.647-1.47 1.445v11.455h-3.73V36.607c0-.8-.66-1.446-1.478-1.446s-1.473.65-1.473 1.45v15.13h-4.27v-7.95c0-.8-.66-1.44-1.474-1.44S21.8 43 21.8 43.8v7.95h-3.42v-7.37c0-.8-.66-1.445-1.473-1.445s-1.474.648-1.474 1.447v7.37H11.49v-5.69c0-.8-.66-1.444-1.474-1.444s-1.474.646-1.474 1.445v5.686h-4.6c-.553 0-1-.44-1-.98V9.62c0-.54.447-.98 1-.98h53.106c.55 0 1 .44 1 .98v41.13z"/>
    <path id="c" d="M37.687 5.753l-.245.05.04.2h.205v-.25zm-14.375 0v.25h.203l.042-.2-.245-.05zm-.968 48.872l.236.08.114-.33h-.35v.25zm-5.976 17.47l-.236-.08.236.08zm.928 1.83l.08-.238h-.002l-.078.237zm1.866-.91l.236.08-.236-.08zm6.29-18.39v-.25h-.18l-.057.17.237.08zm10.096 0l.237-.08-.058-.17h-.18v.25zm6.29 18.39l-.237.08.24-.08zm1.865.91l-.078-.238.078.237zm.928-1.83l-.23.08.24-.08zm-5.97-17.47v-.25h-.35l.12.33.24-.08zm22.34-45h.25H61zM34.64 5.753v.25h.357l-.122-.336-.23.086zm-8.272 0l-.235-.086-.126.336h.357v-.25zm26.84 45.982h-.25v.25h.25v-.25zm-2.945 0v.25h.25v-.25h-.25zm-4.53 0h-.25v.25h.25v-.25zm-2.95 0v.25h.25v-.25h-.25zm-4.137 0h-.25v.25h.25v-.25zm-2.946 0v.25h.25v-.25h-.25zm-3.73 0h-.25v.25h.25v-.25zm-2.944 0v.25h.25v-.25h-.25zm-4.277 0h-.25v.25h.25v-.25zm-2.95 0v.25h.25v-.25h-.25zm-3.42 0h-.25v.25h.25v-.25zm-2.95 0v.25h.25v-.25h-.25zm-3.95 0h-.25v.25h.25v-.25zm-2.95 0v.25h.25v-.25h-.25zM57.05 5.503H37.688v.5h19.366v-.5zm-19.12.2C37.227 2.306 34.16-.25 30.5-.25v.5c3.423 0 6.284 2.392 6.942 5.554l.49-.102zM30.5-.25c-3.66 0-6.725 2.557-7.433 5.952l.49.102C24.217 2.642 27.077.25 30.5.25v-.5zm-7.188 5.753H3.946v.5h19.366v-.5zm-19.366 0c-2.31 0-4.196 1.845-4.196 4.122h.5c0-1.992 1.654-3.622 3.696-3.622v-.5zM-.25 9.625v41.13h.5V9.625h-.5zm0 41.13c0 2.276 1.887 4.12 4.196 4.12v-.5c-2.042 0-3.696-1.63-3.696-3.62h-.5zm4.196 4.12h18.398v-.5H3.946v.5zm18.16-.33l-5.975 17.47.48.16 5.98-17.47-.47-.16zm-5.975 17.47c-.3.89.19 1.85 1.09 2.147l.16-.475c-.64-.212-.98-.89-.77-1.51l-.47-.163zm1.09 2.147c.18.057.38.087.55.088v-.5c-.13 0-.25-.018-.39-.063l-.16.475zm.55.088c.72 0 1.39-.445 1.63-1.154l-.47-.163c-.17.498-.64.817-1.16.817v.5zm1.63-1.155l6.29-18.39-.47-.16-6.29 18.388.48.162zm6.06-18.22h10.09v-.5h-10.1v.5zm9.86-.17l6.29 18.39.47-.162-6.29-18.39-.47.163zm6.29 18.39c.25.71.92 1.155 1.63 1.155v-.5c-.51 0-.99-.32-1.16-.817l-.47.162zm1.63 1.155c.18 0 .37-.03.55-.088l-.15-.475c-.13.046-.25.064-.39.063v.5zm.55-.088c.9-.297 1.4-1.257 1.09-2.148l-.47.162c.22.62-.12 1.3-.77 1.51l.16.476zm1.09-2.148l-5.98-17.47-.47.162 5.98 17.47.477-.162zm-6.21-17.14h18.39v-.5h-18.4v.5zm18.4 0c2.31 0 4.2-1.843 4.2-4.12h-.5c0 1.992-1.65 3.62-3.692 3.62v.5zm4.2-4.12V9.624h-.5v41.13h.5zm0-41.13c0-2.276-1.882-4.12-4.192-4.12v.5c2.04 0 3.693 1.63 3.694 3.62h.5zM30.5 3.142c1.798 0 3.33 1.13 3.9 2.698l.47-.17c-.64-1.767-2.36-3.03-4.37-3.03v.5zm4.136 2.363h-8.272v.5h8.272v-.5zM26.6 5.84c.57-1.568 2.1-2.697 3.9-2.697v-.5c-2.01 0-3.73 1.263-4.37 3.027l.47.17zm31.2 44.917c0 .397-.332.73-.75.73v.5c.686 0 1.25-.548 1.25-1.23h-.5zm-.75.73h-3.848v.5h3.848v-.5zm-3.598.25V31.13h-.5v20.605h.5zm0-20.604c0-.94-.775-1.695-1.723-1.695v.5c.68 0 1.22.54 1.22 1.196h.5zm-1.723-1.695c-.95 0-1.73.755-1.73 1.696h.5c0-.655.54-1.195 1.22-1.195v-.5zm-1.72 1.692v20.605h.5V31.13h-.5zm.25 20.355h-4.53v.5h4.53v-.5zm-4.28.25V35.552h-.5v16.183h.5zm0-16.183c0-.94-.78-1.695-1.73-1.695v.5c.68 0 1.22.54 1.22 1.195h.5zm-1.73-1.695c-.95 0-1.73.755-1.73 1.695h.5c0-.655.54-1.195 1.22-1.195v-.5zm-1.73 1.695v16.183h.5V35.552h-.5zm.25 15.933h-4.13v.5h4.13v-.5zm-3.89.25V40.28h-.5v11.455h.5zm0-11.455c0-.94-.78-1.695-1.73-1.695v.5c.68 0 1.224.54 1.224 1.195h.5zm-1.73-1.695c-.947 0-1.72.755-1.72 1.695h.5c0-.656.54-1.195 1.22-1.195v-.5zm-1.72 1.695v11.455h.5V40.28h-.5zm.25 11.205h-3.72v.5h3.73v-.5zm-3.478.25V36.607h-.5v15.128h.5zm0-15.128c0-.942-.774-1.696-1.72-1.696v.5c.68 0 1.22.54 1.22 1.2h.5zM30.5 34.91c-.948 0-1.723.755-1.723 1.697h.5c0-.657.542-1.196 1.222-1.196v-.5zm-1.723 1.697v15.128h.5V36.607h-.5zm.25 14.878H24.75v.5h4.277v-.5zm-4.027.25v-7.952h-.5v7.952h.5zm0-7.952c0-.94-.776-1.696-1.723-1.696v.5c.68 0 1.223.54 1.223 1.196h.5zm-1.723-1.696c-.948 0-1.723.755-1.723 1.696h.5c0-.656.542-1.196 1.223-1.196v-.5zm-1.723 1.696v7.952h.5v-7.952h-.5zm.25 7.702h-3.42v.5h3.42v-.5zm-3.17.25v-7.37h-.5v7.37h.5zm0-7.37c0-.94-.776-1.695-1.724-1.695v.5c.68 0 1.223.54 1.223 1.196h.5zM16.91 42.67c-.947 0-1.723.755-1.723 1.696h.5c0-.656.543-1.196 1.223-1.196v-.5zm-1.723 1.696v7.37h.5v-7.37h-.5zm.25 7.12h-3.944v.5h3.944v-.5zm-3.694.25V46.05h-.5v5.685h.5zm0-5.686c0-.94-.776-1.695-1.723-1.695v.5c.68 0 1.223.54 1.223 1.195h.5zm-1.723-1.695c-.947 0-1.723.754-1.723 1.695h.5c0-.656.543-1.195 1.223-1.195v-.5zM8.297 46.05v5.685h.5V46.05h-.5zm.25 5.435h-4.6v.5h4.6v-.5zm-4.6 0c-.42 0-.75-.333-.75-.73h-.5c0 .682.563 1.23 1.25 1.23v-.5zm-.75-.73V9.625h-.5v41.13h.5zm0-41.13c0-.4.33-.73.75-.73v-.5c-.687 0-1.25.547-1.25 1.23h.5zm.75-.73h53.106v-.5H3.946v.5zm53.106 0c.418 0 .75.33.75.73h.5c0-.683-.565-1.23-1.25-1.23v.5zm.75.73v41.13h.5V9.625h-.5z"/>
    <path id="d" d="M44.237 1.3c-.002-.02-.006-.038-.01-.058-.004-.027-.006-.054-.012-.08-.004-.024-.01-.046-.016-.07-.01-.022-.02-.045-.02-.068L44.15.96l-.02-.07-.027-.058-.034-.07c-.01-.018-.02-.036-.04-.053l-.04-.07-.05-.06c-.01-.02-.03-.04-.04-.06l-.08-.09-.01-.02-.02-.01c-.03-.03-.06-.06-.1-.09l-.057-.04-.06-.05L43.52.2l-.06-.03-.06-.03c-.022-.01-.044-.022-.066-.03-.02-.01-.042-.015-.063-.023-.02-.01-.04-.018-.07-.025l-.06-.016-.07-.02L43 .018c-.026-.005-.05-.01-.075-.01-.04-.004-.08-.006-.12-.008h-6.39C35.6 0 34.94.65 34.94 1.448c0 .8.66 1.446 1.473 1.446h2.807l-12.23 12-3.21-3.15c-.276-.272-.65-.424-1.04-.424-.392 0-.766.15-1.042.422l-10.63 10.43-3.172-3.114c-.576-.564-1.508-.564-2.084 0L.43 24.33c-.574.564-.574 1.478 0 2.043.29.282.666.423 1.042.423.378 0 .755-.14 1.043-.423l4.332-4.252 3.174 3.12c.58.57 1.51.57 2.09 0l10.63-10.43 3.21 3.15c.28.27.65.43 1.04.43s.77-.15 1.04-.42L41.3 4.94v2.75c0 .8.66 1.446 1.472 1.446.815 0 1.474-.647 1.474-1.446V1.445c.002-.05-.002-.097-.006-.144z"/>
    <path id="e" d="M44.237 1.3l.25-.022-.002-.008-.248.03zm-.01-.058l-.246.04.25-.04zm-.012-.08l-.245.05.245-.05zm-.016-.07l.24-.06V1.03l-.24.063zm-.02-.068l-.24.072V1.1l.24-.076zM44.15.96l.235-.088-.235.087zm-.02-.07l-.23.1v.002l.23-.102zm-.027-.058l.226-.107-.23.107zm-.034-.07l.22-.112-.01-.01-.22.122zM44.03.71l-.216.124.006.007.004.01.21-.14zm-.04-.07l.21-.135V.5l-.206.14zm-.08-.11l-.192.16.19-.16zm-.084-.09L44 .257 43.993.25l-.166.187zm-.014-.02l-.184.17.01.01.174-.18zm-.014-.01l-.175.178.01.01.01.008.155-.196zm-.093-.083l.157-.195-.006-.005-.15.2zm-.056-.04l-.16.198V.49l.14-.203zm-.06-.044l-.15.205.01.007.13-.212zm-.07-.04l.13-.214-.01-.01-.13.22zM43.46.17l.118-.22v-.002l-.116.222zM43.4.14l-.11.224.01.005.1-.23zm-.066-.03l.092-.233-.092.232zM43.27.086l-.09.234.008.003.083-.236zM43.2.062l.072-.24h-.003l-.07.24zm-.062-.016l.062-.242-.007-.002-.054.244zm-.078-.02l.054-.243-.01-.002-.044.25zm-.07-.008l-.044.245.01.002h.01l.025-.247zm-.073-.01l-.023.248h.01l.013-.25zM42.797 0l.005-.25h-.005V0zm-3.583 2.89l.175.18.43-.43h-.61v.25zm-12.23 12l-.174.178.175.172.175-.172-.175-.178zm-3.21-3.15l.176-.18-.175.18zm-2.082 0l.175.178-.175-.18zm-10.63 10.428l-.175.18.175.17.175-.17-.175-.18zM7.89 19.055l.175-.18-.175.18zm-2.084 0l-.175-.18.18.18zM.43 24.33l-.174-.18.175.18zm0 2.043l-.174.178v.01l.175-.18zm2.085 0l.175.18-.175-.18zm4.332-4.252l.175-.17-.175-.17-.175.18.175.18zm3.174 3.12l-.17.18.18-.18zm2.09 0l.18.18-.17-.18zm10.63-10.43l.18-.18-.17-.17-.17.17.176.18zm3.21 3.15l-.17.18.18-.18zm2.09 0l.18.18-.17-.18zM41.3 4.94h.25v-.6l-.426.416.175.18zm2.945-3.49l-.25-.008v.005h.25zm.242-.176l-.01-.066-.494.08.01.05.495-.062zm-.01-.066c-.003-.017-.007-.05-.015-.093l-.49.103c.005.012.006.034.01.07l.496-.08zm-.015-.09c-.005-.032-.013-.06-.02-.08l-.482.123.013.06.49-.1zm-.02-.083c-.003-.02-.01-.047-.02-.082l-.477.15.015.058.484-.13zm-.02-.08c-.01-.03-.02-.06-.03-.077l-.467.173.02.05.477-.14zm-.03-.08c-.004-.013-.013-.043-.03-.08l-.456.203c.004.007.008.024.02.054l.464-.18zm-.03-.08c-.01-.026-.022-.05-.03-.064l-.45.22.023.05.46-.2zm-.03-.065l-.04-.076-.446.222.032.067.45-.216zM44.29.64l-.046-.07-.415.278c.01.015.01.024.02.034l.44-.24zm-.037-.057c-.014-.025-.03-.053-.048-.078l-.42.273c.013.018.024.035.036.056l.44-.25zM44.203.5c-.02-.028-.038-.05-.05-.065l-.4.3c.017.022.03.036.037.048L44.202.5zm-.05-.065c-.012-.018-.03-.043-.052-.068l-.38.323c.01.01.02.024.04.044l.4-.3zM44.1.367C44.07.33 44.037.292 44 .26l-.35.356c.026.024.046.046.068.072l.383-.32zM43.994.25l.016.017.004.005L44.01.27l-.003-.006c-.005-.004-.01-.012-.02-.02l-.35.357c-.006 0-.01-.01-.012-.01 0 0-.003 0 0 0 .002.01.015.02.034.04l.33-.37zM44 .253l-.034-.03-.012-.01-.31.393.006.004-.01-.007-.01-.012.37-.33zM43.972.23C43.94.2 43.9.163 43.862.134l-.314.388c.027.023.05.043.075.068l.35-.357zm-.117-.103l-.062-.044-.29.407.05.037.302-.4zM43.8.087c-.02-.014-.048-.036-.078-.055l-.267.423c.013.007.024.016.042.03L43.8.088zM43.734.04c-.034-.024-.065-.04-.08-.05l-.257.43.048.027.29-.408zm-.084-.053c-.017-.01-.04-.023-.07-.038l-.23.44.05.03.248-.44zm-.07-.04l-.082-.037-.197.46c.02.008.04.014.05.023l.23-.445zm-.07-.032c-.02-.01-.05-.025-.084-.038l-.184.465c.01.004.024.01.047.022l.22-.45zm-.085-.04l-.072-.024-.165.48.055.02.182-.46zm-.064-.02c-.02-.01-.05-.023-.09-.033l-.14.48c.02.004.04.01.06.02l.18-.468zm-.09-.035l-.07-.015-.12.484.06.01.14-.48zm-.07-.017c-.02-.004-.04-.01-.07-.02l-.11.49.08.018.11-.48zm-.08-.02c-.03-.006-.06-.01-.09-.013l-.05.496.05.007.09-.492zm-.07-.01c-.02-.005-.06-.012-.1-.014l-.03.5h.05l.09-.49zm-.1-.013c-.04-.005-.09-.007-.13-.008l-.01.5.1.006.05-.498zm-.14-.01c.01 0 .01 0 0 0h-.02v.5h.03v-.5zm-.02 0h-6.37v.5h6.37v-.5zm-6.36 0c-.942 0-1.72.755-1.72 1.695h.5C35.2.79 35.74.25 36.42.25v-.5zM34.7 1.445c0 .94.775 1.696 1.722 1.696v-.5c-.68 0-1.223-.54-1.223-1.19h-.5zm1.72 1.695h2.806v-.5h-2.81v.5zm2.63-.427l-12.228 12 .35.356 12.23-12-.35-.36zm-11.878 12l-3.21-3.15-.35.356 3.21 3.15.35-.36zm-3.21-3.15c-.324-.32-.76-.496-1.217-.496v.5c.326 0 .637.126.867.35l.35-.356zm-1.217-.496c-.456 0-.893.177-1.216.494l.35.36c.23-.22.54-.35.86-.35v-.5zm-1.216.494L10.89 21.99l.35.358 10.63-10.43-.35-.355zM11.24 21.99l-3.174-3.11-.35.357 3.172 3.114.35-.35zm-3.175-3.11c-.673-.66-1.76-.66-2.433 0l.35.357c.48-.468 1.256-.468 1.735 0l.35-.357zm-2.433 0L.257 24.15l.35.358 5.375-5.275-.35-.357zM.257 24.15c-.675.664-.674 1.738 0 2.402l.35-.357c-.475-.467-.475-1.22 0-1.688l-.35-.356zm0 2.402c.337.33.778.494 1.216.494v-.5c-.314 0-.627-.117-.866-.35l-.35.356zm1.216.494c.44 0 .88-.164 1.218-.494l-.35-.357c-.24.234-.55.35-.86.35v.5zm1.218-.494L7.03 22.3l-.35-.357-4.333 4.252.35.357zM6.68 22.3l3.174 3.113.35-.356-3.174-3.114-.35.356zm3.174 3.114c.67.66 1.76.66 2.43 0l-.35-.357c-.48.468-1.253.468-1.73 0l-.35.357zm2.43 0l10.63-10.43-.35-.357-10.63 10.43.35.357zm10.28-10.43l3.21 3.15.35-.357-3.21-3.15-.35.357zm3.21 3.15c.326.317.76.494 1.218.494v-.5c-.325 0-.637-.127-.866-.35l-.35.356zm1.218.494c.456 0 .894-.177 1.217-.494l-.35-.357c-.23.224-.54.35-.87.35v.502zm1.217-.494L41.48 5.112l-.35-.357-13.27 13.022.35.357zm12.84-13.2v2.753h.5V4.934h-.5zm0 2.753c0 .94.77 1.696 1.72 1.696v-.5c-.68 0-1.22-.54-1.22-1.196h-.5zm1.72 1.696c.95 0 1.72-.755 1.72-1.696H44c0 .656-.542 1.196-1.223 1.196v.5zm1.73-1.696V1.445H44v6.242h.5zm0-6.235c0-.06-.01-.124-.01-.174l-.5.045v.115l.5.014z"/>
    <path id="f" d="M2.946 1.445c0 .8-.66 1.446-1.473 1.446C.66 2.89 0 2.25 0 1.45 0 .648.66 0 1.473 0c.813 0 1.473.647 1.473 1.445z"/>
    <path id="g" d="M1.473 0v.25V0zm1.223 1.445c0 .656-.543 1.196-1.223 1.196v.5c.947 0 1.723-.75 1.723-1.69h-.5zM1.473 2.64C.793 2.64.25 2.103.25 1.446h-.5c0 .942.775 1.696 1.723 1.696v-.5zM.25 1.446C.25.79.793.25 1.473.25v-.5C.525-.25-.25.504-.25 1.445h.5zM1.473.25c.68 0 1.223.54 1.223 1.195h.5c0-.94-.777-1.695-1.723-1.695v.5z"/>
    <path id="h" d="M2.946 1.445c0 .798-.66 1.446-1.473 1.446C.66 2.89 0 2.25 0 1.45S.66 0 1.473 0c.813 0 1.473.647 1.473 1.445z"/>
    <path id="i" d="M2.696 1.445c0 .656-.544 1.196-1.223 1.196v.5c.947 0 1.723-.75 1.723-1.69h-.5zM1.473 2.64C.793 2.64.25 2.1.25 1.446h-.5c0 .94.775 1.696 1.723 1.696v-.5zM.25 1.446C.25.79.793.25 1.473.25v-.5C.525-.25-.25.504-.25 1.445h.5zM1.473.25c.68 0 1.223.54 1.223 1.195h.5c0-.94-.777-1.695-1.723-1.695v.5z"/>
    <path id="j" d="M2.946 1.445c0 .8-.66 1.446-1.473 1.446C.66 2.89 0 2.25 0 1.45 0 .648.66 0 1.473 0c.813 0 1.473.647 1.473 1.445z"/>
    <path id="k" d="M2.696 1.445c0 .656-.543 1.196-1.223 1.196v.5c.947 0 1.723-.75 1.723-1.69h-.5zM1.473 2.64C.793 2.64.25 2.103.25 1.446h-.5c0 .942.775 1.696 1.723 1.696v-.5zM.25 1.446C.25.79.793.25 1.473.25v-.5C.525-.25-.25.504-.25 1.445h.5zM1.473.25c.68 0 1.223.54 1.223 1.195h.5c0-.94-.777-1.695-1.723-1.695v.5z"/>
  </defs>
</svg>
