<svg xmlns="http://www.w3.org/2000/svg" width="82" height="82" viewBox="0 0 82 82" xmlns:xlink="http://www.w3.org/1999/xlink">
  <use fill="#EB3441" xlink:href="#a" transform="translate(55.5 54.5)"/>
  <g fill="#002543">
    <g transform="translate(1 1)">
      <use xlink:href="#b"/>
      <use xlink:href="#c"/>
    </g>
    <g transform="translate(7.466 18.298)">
      <use xlink:href="#d"/>
      <use xlink:href="#e"/>
    </g>
    <g transform="translate(23.19 19.47)">
      <use xlink:href="#f"/>
      <use xlink:href="#g"/>
    </g>
  </g>
  <g fill="#002543" transform="translate(46.917 77.892)">
    <use xlink:href="#h"/>
    <use xlink:href="#i"/>
  </g>
  <g fill="#002543" transform="translate(31.866 14.602)">
    <use xlink:href="#j"/>
    <use xlink:href="#k"/>
  </g>
  <defs>
    <path id="a" d="M2.5 5.5L0 1V0h9L7 5.5l2 11-5.5 4-3.5-4 2.5-11z"/>
    <path id="b" d="M64.597 52.872c3.053-1.856 5.097-5.21 5.097-9.027v-8.092c0-3.797-2.022-7.132-5.047-8.995-1.306-7.325-5.136-14.02-10.83-18.908C47.914 2.788 40.37 0 32.577 0 14.613 0 0 14.565 0 32.47c0 17.903 14.614 32.468 32.577 32.468 2.545 0 5.063-.293 7.515-.872-1.22 2.523-1.908 5.3-1.908 8.19v6.158c0 .643.523 1.164 1.168 1.164h3.868c.645 0 1.168-.52 1.168-1.164 0-.642-.523-1.164-1.168-1.164h-2.7v-4.995c0-3.225.958-6.352 2.754-9.107l.222-.326c1.687-2.475 4.006-4.55 6.665-6.02 1.13-.62 2.32-1.13 3.54-1.517l1.9 3.67-2.53 10.952c-.09.41.04.838.35 1.12l4.9 4.464c.23.21.51.31.79.31s.57-.1.79-.3l4.9-4.46c.31-.28.45-.71.35-1.12L62.6 58.97l1.896-3.67c2.795.89 5.415 2.415 7.578 4.463 3.612 3.42 5.6 7.863 5.6 12.508v5H52.11c-.643 0-1.166.53-1.166 1.17s.524 1.17 1.168 1.17h26.73c.645 0 1.168-.52 1.168-1.16v-6.16c0-8.98-6.64-16.9-15.4-19.38zm-1.35-24.238c2.456 1.43 4.11 4.085 4.11 7.12v2.772c-3.766-.697-5.29-4.515-5.358-4.69-.16-.423-.56-.712-1.01-.745-.46-.03-.89.21-1.11.6-.11.2-2.54 4.45-9.06 4.91v-2.84c0-.13 0-.26.01-.39l.01-.12c0-.08.01-.17.02-.26l.01-.14.03-.25.02-.13c.01-.09.03-.18.05-.27 0-.03.01-.07.01-.1.05-.26.12-.51.19-.76l.01-.02c.03-.11.07-.23.12-.34 0-.01.01-.02.01-.04.04-.11.08-.23.13-.34v-.02c.58-1.35 1.5-2.51 2.66-3.38 0 0 .01 0 .01-.01.09-.07.19-.13.28-.2l.06-.04.23-.15.1-.06.14-.08c.65-.37 1.36-.66 2.12-.85l.03-.01c.63-.15 1.28-.23 1.96-.23.16 0 .32.01.48.02l.1.01c.13.01.27.03.4.04l.07.01c1 .13 1.98.45 2.87.93l.21.12zm-20.89 31.792c-.194.25-.382.5-.565.758-2.97.946-6.07 1.426-9.217 1.426-16.676 0-30.24-13.52-30.24-30.14S15.9 2.327 32.575 2.327c7.237 0 14.24 2.587 19.717 7.287 4.878 4.186 8.285 9.802 9.734 15.987-.344-.1-.694-.18-1.05-.24l-.07-.01c-.104-.02-.21-.03-.318-.05-.064-.01-.126-.01-.19-.02l-.366-.04c-.103-.01-.206-.01-.31-.02l-.16-.01c-.157 0-.315-.01-.472-.01-.48 0-.953.04-1.417.1-1.487-5.15-4.59-9.79-8.826-13.16-4.667-3.72-10.293-5.68-16.274-5.68-7.113 0-13.76 2.8-18.72 7.89-.45.46-.44 1.2.022 1.65.463.45 1.202.44 1.65-.02 4.517-4.63 10.57-7.18 17.048-7.18 5.445 0 10.57 1.79 14.815 5.17 3.837 3.05 6.655 7.25 8.017 11.91-.235.09-.463.18-.69.29l-.1.05-.245.12-.222.12c-.052.03-.105.06-.156.08-2.555 1.4-4.422 3.78-5.158 6.58l-.023.09-.09.41-.02.08c-.03.16-.06.32-.08.49l-.01.06c-.02.14-.03.28-.05.42l-.01.15c-.01.12-.02.23-.02.35v.15c-.01.16-.01.33-.01.49v8.09c0 .12 0 .23.01.35v.04l.01.09.01.11c.01.15.02.3.04.44l.01.13.05.35.03.19.06.32.05.22c.02.07.03.14.05.2.04.14.07.27.11.41l.03.1c.21.72.49 1.41.85 2.06-1.53 1.59-3.26 2.96-5.16 4.07-.55.33-.74 1.04-.41 1.59.22.37.61.57 1.01.57.2 0 .41-.05.59-.16 1.96-1.14 3.75-2.54 5.34-4.14.71.82 1.55 1.52 2.48 2.09-4.51 1.28-8.45 4-11.22 7.56zm20.335 9.342l-3.602 3.286-3.603-3.286 2.265-9.804h2.673l2.266 9.804zm-6.67-15.066c.102-.02.205-.036.307-.054l.21-.033c.13-.02.26-.04.39-.058.16-.022.32-.04.49-.06l.23-.022c.2-.02.4-.036.61-.048l.14-.007c.14-.008.28-.01.42-.016.08.003.17.008.26.008s.17-.005.26-.008c.14.005.28.008.42.016l.14.007c.2.01.41.03.61.048l.23.023c.16.018.32.037.49.06.13.017.26.036.39.057l.21.033.31.054-1.52 2.934h-3.1L56 54.702zm3.387-2.626c-.1-.003-.2-.007-.31-.008h-.03c-.11 0-.21.005-.31.008-.6-.023-1.18-.107-1.73-.25l-.3-.086c-3.15-.937-5.44-3.677-5.86-6.86l-.01-.057-.03-.248-.02-.18-.01-.16v-.016c-.01-.13-.01-.25-.01-.38v-2.92c5.27-.33 8.38-2.8 9.91-4.51 1.07 1.68 3.16 4.01 6.61 4.46v2.96c0 4.43-3.54 8.06-7.95 8.23z"/>
    <path id="c" d="M64.597 52.872l-.234-.385-.882.536 1 .282.12-.433zm.05-26.114l-.444.08.036.197.17.106.23-.38zM53.817 7.85l.292-.342-.3.342zM40.09 64.066l.405.197.412-.852-.92.22.102.44zm.428 13.184h-.45v.45h.45v-.45zm2.754-14.102v-.45h-.244l-.133.204.377.246zm0 0v.45h.24l.132-.197-.37-.25zm.222-.326l-.372-.253.372.25zm6.665-6.02l-.22-.395.21.395zm3.53-1.517l.4-.206-.18-.34-.36.11.13.43zm1.89 3.67l.44.1.03-.16-.08-.147-.4.206zm-2.53 10.95l.44.103v-.002l-.44-.1zm.35 1.12l.3-.33-.31.33zm4.9 4.465l-.31.334.3-.333zm1.57 0l.3.334-.31-.333zm4.89-4.463l-.31-.332.31.332zm.35-1.12l-.44.1v.002l.44-.11zm-2.53-10.953l-.4-.206-.08.147.03.16.44-.1zm1.89-3.67l.13-.428-.36-.114-.17.337.4.2zm7.57 4.463l.31-.327-.31.327zm5.6 17.504v.45h.45v-.45h-.45zM80 72.26h.45H80zM63.246 28.64l.227-.39-.01-.004-.217.394zm4.112 9.89l-.082.443.532.098v-.54h-.45zm-5.36-4.688l-.42.16.002.002.42-.162zm-1.01-.747l.034-.448h-.002l-.03.45zm-1.105.6l.393.22-.393-.22zM50.825 38.6h-.45v.482l.482-.035-.032-.45zm.01-3.235l-.45-.032v.01l.45.024zm.01-.126l.448.03v-.01l-.45-.03zm.02-.27l-.448-.05.448.04zm.014-.14l-.45-.06v.01l.45.04zm.03-.25l-.45-.07.44.06zm.02-.14l.44.07v-.01l-.45-.07zm.05-.27l-.45-.09.44.08zm.02-.11l-.44-.1.44.09zm.19-.76l-.42-.16-.01.01-.01.01.43.13zm.01-.03l-.43-.14-.01.02-.01.02.44.09zm.12-.35l.42.15v-.01l-.43-.15zm.01-.04l-.43-.16h-.01v.01l.42.14zm.13-.34l-.4-.22-.01.02-.01.02.41.18zm.01-.02l-.42-.18.41.17zm2.66-3.39l.27.36.01-.01.01-.01-.3-.34zm.01-.01l-.27-.36-.03.02-.02.02.31.32zm.28-.2l.25.37-.26-.37zm.05-.04l.24.38v-.01l-.25-.38zm.23-.15l-.24-.38h-.01l.24.38zm.1-.07l.23.39v-.01l-.23-.39zm.15-.09l-.22-.39.22.39zm2.12-.85l.11.44h.01v-.01l-.13-.43zm.02-.01L57 27.3l-.01.002.126.43zm2.44-.22l-.03.45.02-.45zm.1.01l.03-.45h-.01l-.03.45zm.4.04l-.05.44H60l.046-.45zm.07.01l.05-.45-.05.44zm2.87.93l.22-.39-.01-.01-.22.39zM42.36 60.43l.353.277-.355-.277zm-.567.758l.137.428.143-.045.087-.12-.366-.26zm-9.217 1.426v-.45.45zm19.717-53l.293-.34-.293.34zm9.734 15.988l-.125.432.738.213-.175-.748-.438.1zm-1.05-.245l.08-.443h-.003l-.077.443zm-.07-.01l-.08.442h.015l.066-.45zm-.318-.052l.06-.446-.07.44zm-.19-.024l-.06.45.05-.44zm-.37-.04l-.05.45.04-.45zm-.31-.02l.03-.45-.03.45zm-.16-.01l.02-.45-.02.45zm-1.89.09l-.43.13.1.37.38-.05-.06-.44zm-8.82-13.17l.28-.35-.28.35zm-35 2.21l.32.32-.32-.31zm.02 1.65l-.32.33.31-.32zm1.65-.02l-.32-.31.32.32zm31.87-2.01l-.28.36.28-.35zm8.02 11.91l.15.43.39-.14-.12-.4-.44.13zm-.69.29l.18.41-.19-.41zm-.1.05l-.19-.41h-.01l.19.41zm-.25.12l.2.41-.2-.4zm-.22.12l-.21-.4h-.01l.21.4zm-.16.08l.21.4-.22-.39zm-5.16 6.58l.43.12v-.01l-.44-.11zm-.03.09l.43.11v-.02l-.44-.1zm-.1.41l.43.11v-.02l-.44-.09zm-.02.08l-.44-.09-.01.01.44.09zm-.09.49l.44.07v-.01l-.45-.07zm-.01.06l.44.07-.44-.06zm-.05.42l.44.05-.45-.04zm-.02.15l.44.04-.45-.04zm-.03.35l.45.03-.45-.02zm-.01.15l-.45-.02.45.02zm-.01 8.93h.45v-.02l-.45.02zm0 .04h-.45v.02l.45-.01zm0 .1l-.45.02v.01l.45-.03zm0 .11l.45-.02v-.01l-.45.04zm.04.44l-.45.05.44-.05zm.01.14l-.45.04v.01l.45-.05zm.04.35l.44-.06v-.01l-.45.07zm.03.19l.44-.07-.45.08zm.05.32l.44-.08-.45.09zm.04.22l.44-.09V46l-.44.1zm.05.2l-.44.11.44-.1zm.1.41l-.43.12v.01l.43-.13zm.03.1l-.43.12v.01l.43-.12zm.85 2.07l.32.31.23-.24-.16-.29-.4.22zm-5.16 4.05l-.23-.39.22.39zm-.42 1.6l.39-.23-.38.23zm1.6.42l.23.39-.22-.39zm5.34-4.14l.34-.3-.32-.36-.34.34.32.32zm2.48 2.08l.13.436.99-.28-.88-.54-.23.39zm9.1 16.898l.31.334.2-.175-.06-.255-.44.1zm-3.6 3.29l-.3.33.31.27.3-.28-.3-.34zm-3.61-3.29l-.44-.1-.06.26.2.177.31-.33zm2.27-9.8v-.45h-.36l-.08.35.44.1zm2.68 0l.44-.1-.09-.35h-.36V60zM56 54.73l-.09-.445-.596.117.28.53.4-.205zm.31-.057l-.07-.445-.01.002.073.44zm.21-.03l.06.444h.01l-.07-.444zm.39-.06L57 55l-.06-.45zm.49-.06l-.047-.45.05.45zm.233-.03l.04.45-.04-.45zm.61-.05l-.025-.45.026.45zm.14-.01l.02.45h.004l-.027-.45zm.42-.02l.014-.45h-.03l.013.45zm.522 0l.016-.45h-.03l.02.45zm.42.01l-.024.45h.01l.02-.45zm.14.003l.026-.45-.02.45zm.61.046l-.04.448.04-.45zm.234.02l.05-.445h-.01l-.05.444zm.49.06l-.06.447.06-.45zm.39.06l-.07.44h.01l.06-.45zm.21.03l.08-.45-.07.44zm.31.05l.4.21.28-.54-.59-.11-.08.44zm-1.52 2.94v.45h.28l.12-.24-.4-.207zm-3.1 0l-.4.21.12.243h.27v-.45zm1.87-5.56l-.02.45h.03l-.02-.45zm-.31-.01l.01-.45v.45zm-.03 0v-.45.45zm-.3.01l-.02.45h.04l-.02-.45zm-1.73-.25l-.13.436h.01l.01.005.11-.44zm-.3-.08l-.13.43.13-.43zm-5.85-6.86l-.45.04v.01l.44-.06zm-.01-.06l.45-.05v-.018l-.45.06zm-.03-.25l-.45.04.45-.04zm-.02-.18l-.45.024v.01l.45-.03zm-.01-.16h-.45v.022l.45-.02zm0-.018h.45v-.02l-.45.02zm-.01-3.29l-.03-.45-.42.03v.426h.45zm9.91-4.5l.38-.245-.32-.5-.39.44.33.3zm6.62 4.46h.45v-.395l-.39-.06-.06.45zm0 2.96h.45-.45zM64.8 53.26c3.18-1.936 5.31-5.43 5.31-9.41h-.9c0 3.65-1.953 6.86-4.88 8.64l.47.77zm5.31-9.41v-8.1h-.9v8.094h.9zm0-8.095c0-3.96-2.11-7.438-5.26-9.38l-.47.76c2.9 1.788 4.83 4.98 4.83 8.615h.9zm-5.06-9.076c-1.323-7.4-5.23-14.23-10.98-19.17l-.584.68c5.64 4.83 9.39 11.39 10.68 18.65l.882-.16zM54.11 7.51C48.142 2.4 40.45-.442 32.576-.45v.9c7.715-.007 15.11 2.726 20.946 7.74l.586-.682zM32.576-.45C14.366-.45-.45 14.315-.45 32.47h.9C.45 14.814 14.86.45 32.577.45v-.9zM-.45 32.47c0 18.153 14.817 32.918 33.027 32.918v-.9C14.86 64.488.45 50.123.45 32.468h-.9zm33.027 32.918c2.57 0 5.14-.3 7.62-.884l-.208-.876c-2.43.574-4.9.86-7.42.86v.9zm7.11-1.518c-1.24 2.567-1.95 5.442-1.953 8.385h.9c-.003-2.834.66-5.513 1.863-7.992l-.81-.393zm-1.953 8.385v6.16h.9v-6.16h-.9zm0 6.16c0 .892.726 1.613 1.618 1.613v-.9c-.398 0-.718-.32-.718-.714h-.9zm1.618 1.613h3.868v-.9h-3.868v.9zm3.868 0c.892 0 1.618-.72 1.618-1.614h-.9c0 .393-.32.714-.718.714v.9zm1.618-1.614c0-.892-.726-1.614-1.618-1.614v.9c.398 0 .718.322.718.714h.9zM43.22 76.8h-2.7v.9h2.7v-.9zm-2.25.45v-4.995h-.9v4.995h.9zm0-4.995c-.005-3.16.916-6.16 2.68-8.86l-.753-.493c-1.826 2.81-2.823 6.06-2.828 9.353h.9zm2.304-8.657v-.9.9zm.372-.197l.222-.32-.744-.5-.22.33.742.51zm.222-.32c1.653-2.43 3.894-4.43 6.51-5.88l-.434-.79c-2.703 1.5-5.1 3.64-6.82 6.16l.744.51zm6.51-5.88c1.11-.61 2.257-1.1 3.456-1.48l-.272-.86c-1.24.4-2.468.92-3.617 1.55l.433.79zm2.92-1.7l1.894 3.67.8-.41-1.894-3.67-.8.42zm1.856 3.36l-2.532 10.95.877.2 2.53-10.95-.88-.2zm-2.532 10.95c-.13.57.054 1.17.485 1.56l.606-.66c-.19-.17-.272-.44-.214-.69l-.88-.2zm.485 1.56L58 75.83l.606-.67-4.893-4.47-.606.66zM58 75.83c.294.252.732.412 1.092.42v-.9c-.205.006-.334-.04-.486-.19l-.606.66zm1.092.42c.36-.008.797-.168 1.09-.424l-.604-.665c-.153.15-.28.19-.486.18v.9zm1.092-.424l4.894-4.465-.607-.67-4.89 4.46.61.66zm4.894-4.464c.43-.396.616-.99.483-1.558l-.87.204c.06.25-.02.51-.21.684l.61.67zm.483-1.557L63.03 58.85l-.874.204 2.53 10.952.877-.202zM63 59.16l1.895-3.668-.8-.413-1.895 3.66.8.41zm1.36-3.446c2.747.87 5.28 2.345 7.403 4.36l.62-.654c-2.204-2.08-4.91-3.658-7.752-4.564l-.27.858zm7.403 4.36c3.53 3.342 5.46 7.67 5.46 12.18h.9c0-4.777-2.047-9.335-5.74-12.834l-.62.654zm5.46 12.18v4.997h.9v-4.99h-.9zm.45 4.547H52.1v.9h25.563v-.9zm-25.563 0c-.89 0-1.617.73-1.617 1.62h.9c0-.39.32-.71.716-.71v-.9zm-1.616 1.62c0 .9.725 1.62 1.617 1.62v-.9c-.39 0-.71-.32-.71-.71h-.9zm1.617 1.62h26.73v-.9H52.11v.9zm26.73 0c.9 0 1.62-.72 1.62-1.61h-.9c0 .4-.32.72-.71.72v.9zm1.62-1.61v-6.16h-.9v6.16h.9zm0-6.16c0-9.21-6.79-17.28-15.73-19.81l-.24.87c8.59 2.43 15.08 10.19 15.08 18.95h.9zM63.03 29.04c2.33 1.353 3.89 3.863 3.89 6.73h.9c0-3.203-1.75-6-4.33-7.508l-.454.776zm3.89 6.73v2.772h.9v-2.78h-.9zm.53 2.33c-1.77-.313-2.96-1.35-3.8-2.38-.82-1.01-1.18-1.944-1.22-2.03l-.84.326c.04.09.47 1.15 1.36 2.27.89 1.094 2.34 2.315 4.34 2.7l.168-.886zm-5.02-4.406c-.22-.592-.77-.99-1.39-1.035l-.066.89c.284.02.525.2.62.46l.844-.32zm-1.4-1.036c-.62-.043-1.22.28-1.53.83l.79.438c.14-.24.407-.39.68-.37l.06-.895zm-1.53.83c-.07.127-2.39 4.226-8.69 4.673l.06.9c6.735-.47 9.28-4.87 9.42-5.13l-.784-.43zm-8.22 5.12V35.76h-.9v2.84h.9zm0-2.842c0-.123.01-.242.01-.37l-.9-.042c0 .134-.01.276-.01.413h.9zm.01-.36l.01-.124-.893-.062-.01.123.898.064zm.01-.13c.01-.082.01-.16.02-.246l-.892-.087c-.01.092-.012.19-.02.282l.9.05zm.02-.246l.02-.148-.898-.075c-.002.04-.01.085-.013.14l.89.085zm.017-.13l.03-.244-.89-.122-.033.26.893.107zm.03-.238c.008-.052.013-.092.02-.125l-.887-.154c-.01.057-.02.107-.024.147l.89.134zm.02-.133c.014-.09.03-.17.046-.26l-.883-.18c-.02.09-.038.19-.054.29l.89.14zm.046-.26c.01-.04.014-.08.02-.1l-.883-.18c-.01.04-.016.08-.02.1l.88.17zm.018-.1c.06-.25.12-.48.19-.72l-.86-.27c-.08.26-.15.53-.2.79l.88.18zm.18-.69l.01-.01c.01-.02.02-.04.02-.08l-.87-.2.02-.05s0-.01 0 0v.01l.85.31zm.02-.05c.04-.11.07-.22.11-.33l-.84-.32-.12.36.86.27zm.12-.33l.01-.01c.01-.01.01-.02.02-.04l-.85-.29c0-.01 0-.01 0 0l-.01.03.85.3zm.02-.04c.04-.11.08-.22.13-.32l-.83-.35c-.05.11-.1.24-.14.35l.84.31zm.11-.28l.03-.06-.83-.35.01-.02.8.42zm.03-.06c.55-1.3 1.4-2.37 2.52-3.2l-.54-.72c-1.2.9-2.2 2.16-2.8 3.57l.83.35zm2.54-3.22l.01-.01.03-.03-.63-.64.02-.02.01-.01v.01l.59.68zm-.01.01l.27-.19-.51-.74c-.09.06-.19.13-.29.2l.54.72zm.27-.19c.02-.02.03-.02.05-.03l-.49-.76c-.02.02-.05.03-.07.05l.52.74zm.05-.04l.23-.15-.48-.76-.24.15.5.74zm.23-.14l.1-.06-.45-.78c-.05.02-.09.05-.11.07l.48.76zm.1-.06l.14-.08-.45-.78-.15.09.46.77zm.14-.08c.63-.36 1.28-.62 2.01-.81l-.23-.89c-.79.2-1.56.51-2.24.9l.45.78zm2.03-.81l.03-.01-.25-.86-.03.01h.01l.25.86zm0 0c.61-.15 1.21-.23 1.86-.23v-.9c-.7 0-1.41.09-2.06.25l.21.87zm1.86-.23c.16 0 .3 0 .46.01l.05-.9c-.17-.01-.34-.02-.51-.02v.9zm.46.01h.1l.05-.9-.1-.01-.05.89zm.09 0l.38.03.11-.89c-.14-.02-.29-.03-.42-.04l-.07.89zm.39.04h.06l.11-.89-.08-.01-.09.89zm.06 0c.97.12 1.87.41 2.72.88l.43-.79c-.93-.5-1.98-.84-3.03-.98l-.12.89zm2.72.88l.22.12.44-.79-.21-.12-.43.79zM42.05 60.13c-.196.25-.39.51-.576.77l.73.52c.18-.25.364-.49.555-.74l-.71-.55zm-.346.605c-2.94.94-5.97 1.406-9.08 1.405v.9c3.18 0 6.345-.49 9.35-1.45l-.27-.852zm-9.08 1.405c-16.43 0-29.795-13.32-29.795-29.69h-.9c0 16.87 13.77 30.59 30.69 30.59v-.9zM2.78 32.47c0-16.37 13.363-29.692 29.79-29.692v-.9c-16.92 0-30.69 13.72-30.69 30.59h.9zM32.57 2.778C39.732 2.77 46.588 5.303 52 9.956l.586-.683c-5.543-4.745-12.694-7.388-20.01-7.395v.9zM52 9.956c4.828 4.136 8.16 9.63 9.59 15.75l.875-.207c-1.47-6.26-4.95-11.99-9.88-16.23L52 9.95zM62.15 25.17c-.353-.103-.726-.19-1.093-.256l-.16.886c.345.062.673.14 1.005.234l.25-.864zm-1.096-.256c-.026-.005-.054-.01-.08-.013l-.132.9.058.01.154-.89zm-.064-.01c-.11-.02-.226-.04-.337-.055l-.128.89c.104.01.202.03.302.05l.163-.89zm-.337-.055l-.2-.03-.105.89.178.02.127-.89zm-.196-.03c-.124-.02-.255-.03-.385-.04l-.076.89.35.03.11-.9zm-.38-.04l-.325-.03-.056.89c.103 0 .2.01.295.02l.09-.9zm-.327-.03l-.166-.01-.04.9.155.01.05-.9zm-.168-.01c-.16-.01-.326-.02-.49-.02v.9c.15 0 .3 0 .453.01l.037-.9zm-.49-.02c-.498 0-1 .04-1.476.1l.118.89c.45-.06.893-.1 1.358-.1v-.9zm-.985.42c-1.51-5.22-4.692-9.98-8.977-13.4l-.56.7c4.182 3.32 7.21 7.85 8.672 12.94l.865-.25zM49.13 11.76C44.4 8.01 38.632 6 32.576 5.992v.9C38.482 6.89 43.966 8.8 48.57 12.47l.56-.706zM32.576 5.99c-7.234 0-13.998 2.847-19.043 8.017l.645.63c4.874-4.997 11.406-7.75 18.398-7.75v-.9zm-19.043 8.02c-.623.64-.61 1.662.032 2.284l.627-.646c-.284-.275-.29-.726-.014-1.008l-.645-.63zm.033 2.284c.64.62 1.662.608 2.285-.032l-.64-.628c-.27.282-.73.29-1.01.013l-.62.644zm2.285-.032c4.44-4.542 10.37-7.044 16.73-7.044v-.9c-6.59 0-12.76 2.6-17.37 7.317l.65.628zM32.58 9.22c5.37-.005 10.352 1.73 14.535 5.067l.562-.704c-4.31-3.42-9.575-5.256-15.096-5.262v.9zm14.535 5.067c3.786 3.005 6.527 7.088 7.865 11.684l.864-.25c-1.387-4.72-4.28-9.03-8.17-12.13l-.56.71zm8.14 11.136c-.243.09-.486.192-.72.297l.373.82c.22-.1.434-.19.66-.272l-.312-.845zm-.72.297c-.033.017-.067.032-.097.046l.366.822.104-.047-.372-.82zm-.106.05l-.26.12.4.808c.07-.04.15-.076.23-.114l-.39-.814zm-.25.12l-.24.12.42.795.21-.107-.4-.808zm-.24.123c-.05.024-.1.05-.16.086l.44.78.15-.08-.44-.79zm-.16.083c-2.66 1.453-4.61 3.938-5.38 6.862l.87.228c.7-2.683 2.49-4.965 4.94-6.3l-.43-.79zm-5.37 6.854l-.03.12.88.19.01-.064-.87-.242zm-.03.1c-.04.14-.07.288-.1.43l.88.18c.02-.13.05-.252.09-.385l-.88-.22zm-.1.415l-.02.09.88.193c0-.03.01-.05.01-.068l-.87-.216zm-.02.098c-.04.165-.07.337-.09.508l.89.14c.02-.15.05-.31.08-.46l-.88-.18zm-.09.503l-.01.072.89.128.01-.055-.89-.14zm-.01.07l-.06.433.89.09c.01-.14.03-.27.05-.4l-.89-.14zm-.06.43l-.02.16.89.08.01-.14-.9-.1zm-.02.16l-.03.367.9.052.02-.34-.9-.08zm-.03.366c0 .047-.01.098-.01.15l.9.047c0-.05 0-.09.01-.15l-.9-.06zm-.01.153c-.01.168-.02.342-.02.514h.9c0-.16 0-.31.01-.47l-.9-.05zm-.02.514v8.09h.9v-8.09h-.9zm0 8.09c0 .12 0 .24.01.36l.9-.03c-.01-.12-.01-.22-.01-.33h-.9zm.01.34v.03h.9v-.05h-.9zm0 .05v.1l.9-.04-.01-.09-.9.02zm0 .11l.01.11.89-.07-.01-.1-.9.05zm.01.1c0 .15.02.31.03.46l.89-.09c-.02-.14-.03-.28-.04-.43l-.9.04zm.03.46l.01.13.9-.08-.02-.14-.9.09zm.01.14c.01.11.02.24.04.36l.89-.14c-.02-.11-.03-.21-.05-.32l-.89.1zm.04.35l.03.21.89-.15-.03-.18-.89.12zm.03.2l.06.33.88-.17c-.02-.1-.04-.2-.05-.31l-.89.14zm.06.32c.01.07.03.15.05.23l.88-.2c-.02-.07-.03-.13-.05-.2l-.88.17zm.04.22l.05.21.87-.21-.05-.19-.88.19zm.05.21c.03.14.07.28.11.42l.86-.24c-.04-.13-.07-.26-.1-.39l-.88.21zm.11.42l.02.09.87-.24-.03-.11-.87.25zm.03.09c.21.74.52 1.48.88 2.15l.79-.43c-.34-.63-.61-1.28-.81-1.98l-.87.25zm.95 1.63c-1.51 1.57-3.19 2.9-5.07 3.99l.45.77c1.93-1.14 3.71-2.54 5.26-4.15l-.65-.63zm-5.06 4c-.77.45-1.03 1.44-.58 2.21l.77-.46c-.2-.34-.09-.78.25-.98l-.46-.78zm-.58 2.21c.3.51.84.79 1.39.79v-.9c-.25 0-.49-.13-.62-.36l-.78.45zm1.39.79c.25-.01.57-.09.81-.22l-.45-.78c-.13.08-.22.1-.37.1v.9zm.81-.22c1.98-1.16 3.81-2.59 5.43-4.21l-.64-.64c-1.57 1.58-3.31 2.94-5.24 4.06l.45.78zm4.77-4.23c.73.83 1.62 1.58 2.57 2.17l.47-.77c-.9-.55-1.68-1.21-2.37-2l-.67.6zm2.69 1.35c-4.58 1.3-8.65 4.1-11.46 7.71l.71.55c2.72-3.51 6.55-6.15 10.99-7.4l-.25-.87zm8.92 17l-3.6 3.28.61.66 3.6-3.29-.61-.66zm-2.98 3.3l-3.6-3.29-.61.66 3.6 3.28.6-.66zm-3.47-2.85l2.27-9.81-.88-.21-2.27 9.8.88.2zm1.83-9.46h2.68v-.9h-2.67v.9zm2.23-.35l2.27 9.81.88-.2-2.26-9.8-.88.2zm-3.88-4.92l.31-.05-.16-.88-.317.06.167.88zm.3-.05l.21-.03-.13-.89c-.08.01-.15.03-.22.04l.14.89zm.22-.03c.13-.02.25-.04.38-.05l-.12-.89-.41.06.14.89zM57 55l.48-.06-.096-.89-.5.06.12.894zm.474-.057c.08-.01.154-.02.23-.026l-.08-.898-.24.02.09.89zm.23-.026c.2-.02.396-.036.594-.048l-.054-.9c-.21.01-.42.03-.62.05l.083.9zm.59-.048l.136-.01-.04-.9h-.142l.05.9zm.143-.01c.13-.01.267-.01.41-.02l-.03-.9c-.136.01-.28.01-.43.02l.05.9zm.38-.02c.08 0 .178.01.277.01v-.9c-.078 0-.157-.01-.25-.01l-.03.9zm.277.01c.096 0 .192-.01.275-.01l-.04-.9c-.09 0-.17.01-.25.01v.9zm.243-.01l.41.02.05-.9c-.147-.01-.29-.01-.43-.02l-.035.9zm.418.02h.138l.046-.9-.15-.01-.04.9zm.137 0c.196.01.39.03.595.04l.08-.9c-.204-.02-.415-.04-.624-.05l-.054.9zm.595.04l.23.02.09-.9-.24-.03-.08.89zm.225.02l.478.06.13-.89-.5-.06-.1.89zm.48.06l.38.06.144-.89-.41-.06-.12.89zm.387.06l.2.03.14-.89-.22-.03-.13.89zm.2.03c.1.02.2.03.3.05l.16-.89-.32-.06-.16.89zm-.02-.6l-1.52 2.93.8.41 1.52-2.93-.8-.42zm-1.11 2.7h-3.11v.9h3.11v-.9zm-2.71.24l-1.52-2.94-.8.41 1.51 2.93.8-.41zm1.48-5.8l-.31-.01-.01.9.29.01.03-.9zm-.32-.01h-.03v.9h.03v-.9zm-.03 0l-.31.01.03.9.29-.01-.01-.9zm-.28.01c-.57-.02-1.1-.1-1.64-.24l-.22.87c.58.15 1.2.24 1.82.26l.04-.9zm-1.62-.23l-.3-.09-.25.86.29.09.26-.87zm-.3-.09c-2.98-.89-5.14-3.48-5.53-6.49l-.9.11c.43 3.35 2.85 6.24 6.17 7.23l.25-.87zm-5.54-6.48v-.06l-.9.09.01.05.9-.09zm-.01-.07l-.02-.23-.9.08c0 .08.01.17.02.26l.89-.12zm-.02-.23c0-.06-.01-.11-.01-.17l-.9.06.01.19.89-.09zm-.01-.17l-.01-.16-.9.05.01.16.9-.05zm-.01-.14v-.05.03h-.9v.05-.03h.9zm0-.03c-.01-.12-.01-.24-.01-.36h-.9c0 .13 0 .27.01.39l.9-.03zm-.01-.36V40.9h-.9v2.92h.9zm-.42-2.47c5.42-.33 8.62-2.88 10.22-4.65l-.67-.6c-1.48 1.64-4.48 4.05-9.61 4.36l.05.9zm9.5-4.71c1.11 1.73 3.3 4.19 6.94 4.67l.12-.89c-3.26-.43-5.26-2.63-6.3-4.26l-.76.49zm6.55 4.22v2.96h.9V40.9h-.9zm0 2.96c0 4.19-3.34 7.63-7.52 7.79l.03.9c4.65-.18 8.38-4 8.38-8.68h-.9z"/>
    <path id="d" d="M35.885 38.08c-.225-.603-.898-.91-1.502-.686-2.643.977-5.426 1.474-8.272 1.474-13.11 0-23.77-10.63-23.77-23.698 0-4.79 1.43-9.405 4.13-13.35.37-.53.23-1.25-.3-1.614-.53-.366-1.26-.23-1.62.3C1.57 4.836 0 9.906 0 15.17c0 14.35 11.713 26.024 26.11 26.024 3.125 0 6.182-.545 9.086-1.62.604-.223.913-.892.69-1.495z"/>
    <path id="e" d="M35.885 38.08l.422-.158-.422.157zm-1.502-.686l.156.422-.16-.422zM6.463 1.82l.372.255-.37-.255zM6.16.203l.253-.372-.253.38zM4.535.507l-.37-.255.37.255zm30.66 39.067l-.156-.422.15.422zm1.11-1.653c-.312-.83-1.243-1.26-2.08-.94l.314.85c.37-.14.78.05.92.42l.84-.31zm-2.08-.94c-2.604.97-5.31 1.45-8.115 1.45v.9c2.887 0 5.748-.51 8.43-1.5l-.313-.84zm-8.115 1.44c-12.862 0-23.325-10.43-23.325-23.24h-.9c0 13.32 10.87 24.15 24.226 24.15v-.9zM2.786 15.17C2.78 10.446 4.17 5.957 6.836 2.075l-.742-.51c-2.735 4-4.203 8.746-4.208 13.606h.9zm4.05-13.095c.505-.737.315-1.74-.422-2.244l-.507.75c.327.23.41.67.187.99l.742.51zM6.413-.17c-.737-.5-1.743-.31-2.248.423l.742.51c.224-.326.672-.41 1-.187l.506-.744zM4.165.254c-3 4.39-4.61 9.587-4.615 14.917h.9C.445 9.98 1.974 5.04 4.907.76L4.165.254zM-.45 15.17c0 14.6 11.916 26.475 26.56 26.475v-.9C11.96 40.745.45 29.27.45 15.17h-.9zm26.56 26.475c3.165-.002 6.3-.56 9.242-1.65l-.312-.843c-2.866 1.063-5.844 1.594-8.93 1.593v.9zm9.242-1.65c.837-.307 1.266-1.236.955-2.073l-.844.314c.137.37-.05.78-.423.916l.312.844z"/>
    <path id="f" d="M11.538 9.246V1.163C11.538.52 11.016 0 10.37 0S9.204.52 9.204 1.163v8.083c-2.136.524-3.726 2.45-3.726 4.736 0 1.096.364 2.108.978 2.924L.308 23.573c-.436.473-.405 1.21.07 1.645.225.205.507.306.79.306.315 0 .63-.126.86-.377l6.235-6.766c.64.31 1.354.48 2.11.48 2.697 0 4.894-2.18 4.894-4.88 0-2.28-1.592-4.21-3.73-4.73zm-1.167 7.288c-1.41 0-2.55-1.145-2.55-2.55 0-1.407 1.15-2.55 2.56-2.55 1.41 0 2.56 1.143 2.56 2.55 0 1.405-1.14 2.55-2.56 2.55z"/>
    <path id="g" d="M11.538 9.246h-.45V9.6l.343.083.11-.437zm-2.335 0l.107.437.343-.084v-.36h-.45zm-2.748 7.66l.33.305.255-.27-.226-.3-.36.27zM.308 23.573l.33.305-.33-.306zm.07 1.645l.305-.332-.304.33zm1.65-.07l-.33-.306.33.305zm6.235-6.766l.194-.406-.3-.143-.224.244.33.304zm7.004-4.402h.45-.45zm-3.28-4.736v-8.08h-.9v8.082h.9zm0-8.083c0-.89-.724-1.61-1.616-1.61v.9c.4 0 .72.32.72.72h.9zM10.372-.45c-.89 0-1.617.72-1.617 1.613h.9c0-.392.32-.713.718-.713v-.9zM8.754 1.163v8.083h.9V1.163h-.9zm.343 7.646c-2.33.57-4.07 2.67-4.07 5.17h.9c0-2.08 1.443-3.83 3.384-4.3L9.1 8.8zm-4.07 5.17c.008 1.17.42 2.32 1.07 3.19l.718-.54c-.577-.76-.894-1.64-.887-2.66h-.9zm1.098 2.62l-6.147 6.67.662.61 6.146-6.67-.662-.61zm-6.147 6.67c-.605.65-.562 1.67.098 2.28l.607-.67c-.293-.26-.31-.71-.043-1l-.663-.61zm.097 2.28c.296.26.734.42 1.094.42v-.9c-.21 0-.34-.04-.49-.19l-.61.66zm1.094.42c.43 0 .87-.18 1.19-.52l-.66-.61c-.15.15-.34.23-.53.23v.9zm1.19-.52l6.23-6.77-.66-.61-6.24 6.76.66.61zm5.71-6.67c.68.32 1.49.51 2.3.52v-.9c-.7 0-1.32-.15-1.92-.44l-.39.81zm2.3.52c2.94 0 5.34-2.39 5.34-5.33h-.9c0 2.44-2 4.43-4.45 4.43v.9zm5.34-5.33c0-2.5-1.74-4.6-4.07-5.17l-.22.87c1.94.47 3.38 2.22 3.38 4.3h.9zm-5.34 2.1c-1.17 0-2.11-.95-2.11-2.1h-.9c0 1.65 1.35 3 3.01 3v-.9zm-2.11-2.1c0-1.16.94-2.1 2.11-2.1v-.9c-1.66 0-3.01 1.34-3.01 3h.9zm2.11-2.1c1.16 0 2.11.94 2.11 2.1h.9c0-1.66-1.35-3-3.01-3v.9zm2.11 2.1c0 1.15-.95 2.1-2.11 2.1v.9c1.66 0 3.01-1.35 3.01-3h-.9z"/>
    <path id="h" d="M1.703.006h-.016C.83-.07.08.563.007 1.416-.07 2.272.57 3.026 1.43 3.1c.045.007.092.01.136.01.8 0 1.48-.61 1.55-1.418C3.194.838 2.56.084 1.704.007z"/>
    <path id="i" d="M1.703.006l.04-.448h-.026l-.014.448zm-.016 0l-.04.448h.013l.013.002.014-.45zM1.43 3.1l.052-.446-.014-.002-.04.45zm1.688-1.41l.45.04-.45-.04zm-1.4-2.133H1.7l-.027.9h.016l.02-.9zm.008 0C.62-.538-.344.277-.442 1.377l.896.08C.508.85 1.04.4 1.648.455l.078-.896zm-2.168 1.82C-.54 2.484.288 3.452 1.39 3.55l.078-.898C.854 2.6.4 2.06.454 1.457l-.896-.08zm1.82 2.17c.062.008.135.01.19.01v-.9c-.036 0-.056 0-.086-.003l-.105.894zm.19.01c1.03 0 1.906-.783 2-1.827l-.898-.08c-.05.574-.533 1.008-1.103 1.008v.9zm2-1.827C3.662.627 2.844-.343 1.742-.442l-.08.897c.61.054 1.06.59 1.007 1.196l.89.08z"/>
    <path id="j" d="M1.703.006h-.016C.83-.07.08.563.007 1.416-.07 2.272.57 3.026 1.43 3.1c.045.007.092.01.136.01.8 0 1.48-.61 1.55-1.418C3.194.838 2.56.084 1.704.007z"/>
    <path id="k" d="M1.703.006l.04-.448h-.026l-.014.448zm-.016 0l-.04.448h.013l.013.002.014-.45zM1.43 3.1l.052-.446-.014-.002-.04.45zm1.688-1.41l.45.04-.45-.04zm-1.4-2.133H1.7l-.027.9h.016l.02-.9zm.008 0C.62-.538-.344.277-.442 1.377l.896.08C.508.85 1.04.4 1.648.455l.078-.896zm-2.168 1.82C-.54 2.484.288 3.452 1.39 3.55l.078-.898C.854 2.6.4 2.06.454 1.457l-.896-.08zm1.82 2.17c.062.008.135.01.19.01v-.9c-.036 0-.056 0-.086-.003l-.105.894zm.19.01c1.03 0 1.906-.783 2-1.827l-.898-.08c-.05.574-.533 1.008-1.103 1.008v.9zm2-1.827C3.662.627 2.843-.343 1.742-.442l-.08.897c.61.054 1.06.59 1.007 1.196l.89.08z"/>
  </defs>
</svg>
