<svg xmlns="http://www.w3.org/2000/svg" width="77" height="57" viewBox="0 0 77 57" xmlns:xlink="http://www.w3.org/1999/xlink">
  <use fill="#EB3441" xlink:href="#a" transform="translate(13.5 20)"/>
  <use fill="#002543" xlink:href="#b" transform="translate(20.372 24.926)"/>
  <use fill="#002543" xlink:href="#c" transform="translate(28.96 29.89)"/>
  <use fill="#002543" xlink:href="#d" transform="translate(37.516 20.66)"/>
  <use fill="#002543" xlink:href="#e" transform="translate(45.902 24.332)"/>
  <use fill="#002543" xlink:href="#f" transform="translate(54.19 13.817)"/>
  <use fill="#002543" xlink:href="#g"/>
  <use fill="#002543" xlink:href="#h" transform="translate(11.913 6.35)"/>
  <use fill="#002543" xlink:href="#i" transform="translate(68.576 39.11)"/>
  <defs>
    <path id="a" d="M0 18.5h8.5l29.5 2 13-2L42.5 0 34 12l-9-4.5-8 11L8.5 12 0 18.5z"/>
    <path id="b" d="M3.008 1.49c0 .82-.674 1.488-1.504 1.488S0 2.31 0 1.488C0 .67.673 0 1.504 0c.83 0 1.504.667 1.504 1.49z"/>
    <path id="c" d="M3.008 1.49c0 .82-.674 1.488-1.504 1.488S0 2.31 0 1.488C0 .67.673 0 1.504 0c.83 0 1.504.667 1.504 1.49z"/>
    <path id="d" d="M3.008 1.49c0 .82-.674 1.488-1.504 1.488S0 2.31 0 1.488C0 .668.673 0 1.504 0c.83 0 1.504.666 1.504 1.49z"/>
    <path id="e" d="M3.008 1.49c0 .82-.674 1.488-1.504 1.488S0 2.31 0 1.488C0 .67.673 0 1.504 0c.83 0 1.504.667 1.504 1.49z"/>
    <path id="f" d="M3.008 1.49c0 .82-.673 1.488-1.504 1.488C.674 2.978 0 2.31 0 1.488 0 .67.673 0 1.504 0c.83 0 1.504.667 1.504 1.49z"/>
    <path id="g" d="M75.495 44.688H45.04c-.83 0-1.505.666-1.505 1.49 0 1.384-1.138 2.51-2.537 2.51H35.96c-1.398 0-2.536-1.126-2.536-2.51 0-.824-.673-1.49-1.504-1.49H8.246V6.116c0-1.73 1.423-3.138 3.17-3.138h54.167c1.747 0 3.17 1.408 3.17 3.138v28.666c0 .822.673 1.49 1.504 1.49.83 0 1.503-.668 1.503-1.49V6.116C71.76 2.744 68.99 0 65.583 0H11.417c-3.407 0-6.18 2.744-6.18 6.116v38.572H1.504c-.83 0-1.504.666-1.504 1.49v2.338C0 53.194 3.843 57 8.57 57h59.86c4.726 0 8.57-3.806 8.57-8.484v-2.34c0-.822-.674-1.488-1.505-1.488zm-1.504 3.828c.003 3.035-2.492 5.506-5.56 5.506H8.57c-3.068 0-5.562-2.47-5.562-5.506v-.85h27.616c.657 2.305 2.8 4 5.337 4H41c2.537 0 4.68-1.695 5.338-4h27.656v.85z"/>
    <path id="h" d="M52.178 0H1.504C.674 0 0 .666 0 1.49v32.073c0 .822.673 1.49 1.504 1.49h50.674c.83 0 1.504-.668 1.504-1.49V1.49c0-.824-.673-1.49-1.504-1.49zm-1.504 32.074h-5.387V14.23c0-.823-.674-1.49-1.504-1.49s-1.504.667-1.504 1.49v17.844h-5.45v-6.626c0-.822-.674-1.49-1.504-1.49s-1.504.668-1.504 1.49v6.626h-5.447V22.01c0-.824-.674-1.49-1.504-1.49s-1.503.666-1.503 1.49v10.064H19.92v-1.438c0-.822-.673-1.49-1.504-1.49-.83 0-1.503.668-1.503 1.49v1.438h-5.448V26.17c0-.823-.673-1.49-1.504-1.49-.83 0-1.503.667-1.503 1.49v5.904h-5.45V2.978h47.666v29.096z"/>
    <path id="i" d="M3.008 1.49c0 .82-.674 1.488-1.504 1.488S0 2.31 0 1.488C0 .67.673 0 1.504 0c.83 0 1.504.667 1.504 1.49z"/>
  </defs>
</svg>
