<svg xmlns="http://www.w3.org/2000/svg" width="74" height="68" viewBox="0 0 74 68" xmlns:xlink="http://www.w3.org/1999/xlink">
  <g fill="#002543" transform="translate(33.283 1)">
    <use xlink:href="#a"/>
    <use xlink:href="#b"/>
  </g>
  <g fill="#002543" transform="translate(52.797 7.656)">
    <use xlink:href="#c"/>
    <use xlink:href="#d"/>
  </g>
  <g fill="#002543" transform="translate(45.68 3.127)">
    <use xlink:href="#e"/>
    <use xlink:href="#f"/>
  </g>
  <g fill="#002543" transform="translate(55.743 10.703)">
    <use xlink:href="#g"/>
    <use xlink:href="#h"/>
  </g>
  <g fill="#002543" transform="translate(37.518 1.05)">
    <use xlink:href="#i"/>
    <use xlink:href="#j"/>
  </g>
  <g fill="#002543" transform="translate(41.678 1.763)">
    <use xlink:href="#k"/>
    <use xlink:href="#l"/>
  </g>
  <g fill="#002543" transform="translate(49.42 5.11)">
    <use xlink:href="#m"/>
    <use xlink:href="#n"/>
  </g>
  <g fill="#002543" transform="translate(61.713 30.45)">
    <use xlink:href="#o"/>
    <use xlink:href="#p"/>
  </g>
  <g fill="#002543" transform="translate(59.555 38.614)">
    <use xlink:href="#q"/>
    <use xlink:href="#r"/>
  </g>
  <g fill="#002543" transform="translate(58.16 14.167)">
    <use xlink:href="#s"/>
    <use xlink:href="#t"/>
  </g>
  <g fill="#002543" transform="translate(61.805 26.224)">
    <use xlink:href="#u"/>
    <use xlink:href="#v"/>
  </g>
  <g fill="#002543" transform="translate(60.01 17.97)">
    <use xlink:href="#w"/>
    <use xlink:href="#x"/>
  </g>
  <g fill="#002543" transform="translate(61.235 22.024)">
    <use xlink:href="#y"/>
    <use xlink:href="#z"/>
  </g>
  <g fill="#002543" transform="translate(60.96 34.615)">
    <use xlink:href="#A"/>
    <use xlink:href="#B"/>
  </g>
  <g fill="#002543" transform="translate(9.062 21.38)">
    <use xlink:href="#C"/>
    <use xlink:href="#D"/>
  </g>
  <g fill="#002543" transform="translate(10.386 17.358)">
    <use xlink:href="#E"/>
    <use xlink:href="#F"/>
  </g>
  <g fill="#002543" transform="translate(9.03 33.978)">
    <use xlink:href="#G"/>
    <use xlink:href="#H"/>
  </g>
  <g fill="#002543" transform="translate(12.254 41.778)">
    <use xlink:href="#I"/>
    <use xlink:href="#J"/>
  </g>
  <g fill="#002543" transform="translate(8.38 29.795)">
    <use xlink:href="#K"/>
    <use xlink:href="#L"/>
  </g>
  <g fill="#002543" transform="translate(8.392 25.56)">
    <use xlink:href="#M"/>
    <use xlink:href="#N"/>
  </g>
  <g fill="#002543" transform="translate(29.102 1.61)">
    <use xlink:href="#O"/>
    <use xlink:href="#P"/>
  </g>
  <g fill="#002543" transform="translate(21.288 4.76)">
    <use xlink:href="#Q"/>
    <use xlink:href="#R"/>
  </g>
  <g fill="#002543" transform="translate(25.068 2.873)">
    <use xlink:href="#S"/>
    <use xlink:href="#T"/>
  </g>
  <g fill="#002543" transform="translate(17.85 7.22)">
    <use xlink:href="#U"/>
    <use xlink:href="#V"/>
  </g>
  <g fill="#002543" transform="translate(14.84 10.19)">
    <use xlink:href="#W"/>
    <use xlink:href="#X"/>
  </g>
  <g fill="#002543" transform="translate(10.33 38.007)">
    <use xlink:href="#Y"/>
    <use xlink:href="#Z"/>
  </g>
  <g fill="#002543" transform="translate(12.33 13.597)">
    <use xlink:href="#aa"/>
    <use xlink:href="#ab"/>
  </g>
  <use fill="#EB3441" xlink:href="#ac" transform="translate(41 10)"/>
  <g fill="#002543" transform="translate(1 10.493)">
    <use xlink:href="#ad"/>
    <use xlink:href="#ae"/>
  </g>
  <g fill="#002543" transform="translate(19.28 58.256)">
    <use xlink:href="#af"/>
    <use xlink:href="#ag"/>
  </g>
  <defs>
    <path id="a" d="M2.82 1.285C2.755.515 2.084-.053 1.317.005.547.052-.043.717.002 1.49c.045.748.665 1.326 1.403 1.326.028 0 .056 0 .085-.003l.054-.004c.774-.07 1.347-.75 1.277-1.53z"/>
    <path id="b" d="M2.82 1.285l-.248.022.25-.022zM1.317.005l.016.248h.002l-.018-.25zM.002 1.49l-.25.015.25-.015zM1.49 2.815l-.01-.25h-.006l.016.25zm.054-.004l-.02-.24H1.51l.032.25zM3.07 1.27C2.99.36 2.2-.31 1.297-.24l.037.5c.63-.05 1.183.42 1.238 1.05l.498-.044zM1.3-.242C.392-.19-.3.59-.247 1.503l.5-.03C.213.84.698.293 1.333.253l-.034-.5zm-1.547 1.75c.052.88.782 1.56 1.652 1.56v-.5C.8 2.565.288 2.092.252 1.475l-.5.03zm1.652 1.56c.034 0 .07 0 .1-.005l-.03-.5c-.028.003-.048.004-.07.004v.5zm.093-.004c.017 0 .057-.004.08-.006l-.066-.498H1.5l-.02.002.018.5zm.068-.005c.912-.08 1.586-.89 1.504-1.8l-.498.04c.057.63-.414 1.2-1.05 1.25l.044.5z"/>
    <path id="c" d="M2.345.36C1.768-.158.88-.112.36.465c-.518.578-.472 1.468.104 1.99l.035.03c.26.228.59.34.91.34.39 0 .78-.164 1.06-.488.51-.585.45-1.467-.13-1.977z"/>
    <path id="d" d="M2.345.36l-.167.186.002.002.165-.188zM.36.465L.177.298.36.465zm.104 1.99l-.168.185.006.006.007.005.15-.19zm.035.03l.16-.19-.01-.007-.16.196zm1.98-.148l-.19-.163.19.163zM2.51.174C1.832-.436.788-.382.176.298l.37.334C.976.158 1.706.12 2.18.546l.334-.372zM.175.298c-.61.68-.557 1.728.12 2.342l.337-.37C.158 1.84.12 1.106.547.63L.175.298zM.31 2.65c-.003 0-.003 0 0 .002.002 0 .005.004.008.006l.01.01.016.012.31-.392-.01-.008-.01-.01-.014-.01-.31.393zm.025.023c.304.257.715.4 1.08.403v-.5c-.283.003-.527-.08-.753-.28l-.327.377zm1.08.403c.465 0 .928-.195 1.256-.576l-.37-.326c-.23.266-.55.402-.87.402v.5zM2.67 2.5c.594-.688.522-1.728-.16-2.328l-.33.376c.476.418.527 1.145.112 1.626l.378.327z"/>
    <path id="e" d="M1.97.12C1.264-.193.437.127.123.835c-.316.71.004 1.544.713 1.86l.048.02c.175.073.357.107.535.107.55 0 1.07-.328 1.3-.87.29-.715-.04-1.532-.75-1.834z"/>
    <path id="f" d="M1.97.12l-.1.228h.003L1.97.12zM.123.835L.35.938.122.836zm.713 1.86l-.102.228.006.003.095-.23zm.048.02l.096-.23-.097.23zM2.72 1.95l.23.096-.23-.095zM2.07-.11C1.238-.477.262-.1-.108.735L.35.938c.258-.583.94-.846 1.52-.59l.202-.458zM-.11.735c-.37.837.006 1.817.84 2.19l.205-.457C.355 2.208.09 1.523.35.938L-.107.735zm.85 2.192l.047.02.192-.462-.05-.02-.19.462zm.047.02c.2.082.43.125.63.126v-.5c-.154 0-.288-.024-.438-.088l-.2.462zm.63.126c.652 0 1.27-.386 1.533-1.026l-.462-.19c-.184.446-.615.716-1.07.716v.5zM2.95 2.047c.346-.84-.047-1.802-.88-2.158l-.197.46c.58.24.856.92.615 1.5l.462.19z"/>
    <path id="g" d="M2.498.526L2.483.508C1.99-.09 1.11-.17.51.322-.086.814-.17 1.704.32 2.306c.277.34.682.518 1.09.518.313 0 .627-.103.888-.316.602-.492.692-1.38.202-1.982z"/>
    <path id="h" d="M2.498.526L2.692.37 2.69.365l-.192.16zM2.483.508L2.68.352 2.675.348l-.193.16zM.51.322L.353.13l.16.192zM.32 2.306l.194-.158-.194.158zm1.978.202l.158.194-.158-.194zM2.69.366s0 .002 0 0L2.685.36 2.678.353l-.39.312.018.022.384-.32zM2.676.348C2.093-.357 1.056-.45.352.128L.67.516c.493-.406 1.215-.34 1.62.15l.386-.32zM.352.128C-.353.71-.45 1.76.124 2.464l.388-.315C.108 1.65.18.91.67.51L.352.13zM.124 2.464c.327.403.804.61 1.285.61v-.5c-.34 0-.67-.144-.9-.425l-.39.31zm1.285.61c.35-.002.74-.133 1.04-.37l-.32-.39c-.23.188-.46.265-.73.26v.5zm1.04-.372c.71-.578.81-1.62.24-2.33L2.3.686c.403.496.33 1.226-.166 1.63l.316.387z"/>
    <path id="i" d="M1.537.006h-.015C.75-.064.072.51.005 1.286c-.068.773.51 1.457 1.285 1.525.042.01.084.01.125.01.72 0 1.335-.55 1.4-1.28C2.88.76 2.31.08 1.535.01z"/>
    <path id="j" d="M1.537.006l.022-.25h-.02l-.01.25zm-.015 0L1.5.256h.014l.008-.25zM1.29 2.81l.03-.25h-.01l-.022.25zm1.524-1.28l.25.023-.25-.022zM1.544-.243H1.53l-.016.5h.015l.01-.5zm0 0C.632-.323-.164.352-.244 1.263l.498.044C.31.667.867.2 1.5.254l.044-.498zM-.244 1.263c-.08.914.6 1.718 1.512 1.798l.044-.49C.674 2.51.2 1.95.254 1.31l-.498-.045zM1.26 3.06c.052.006.11.01.155.01v-.5c-.036 0-.063-.002-.096-.006l-.06.496zm.155.01c.85 0 1.572-.652 1.648-1.515l-.498-.044c-.053.61-.558 1.06-1.15 1.06v.5zm1.648-1.515C3.143.643 2.47-.162 1.56-.243l-.046.498c.636.057 1.107.62 1.05 1.256l.5.05z"/>
    <path id="k" d="M1.79.053L1.736.04C.983-.143.224.32.04 1.076c-.183.754.277 1.512 1.026 1.7.118.03.237.046.354.046.618 0 1.185-.413 1.356-1.04.204-.75-.237-1.524-.987-1.73z"/>
    <path id="l" d="M1.79.053l-.07.24.003.002.066-.242zM1.736.04l.066-.24-.007-.003-.06.243zM.04 1.076l-.243-.06.243.06zm1.026 1.7l.063-.242h-.01l-.06.242zm1.71-.993l.24.065-.24-.065zm-.918-1.97l-.035-.01c-.005 0-.01 0-.013-.002h-.007L1.67.28l.033.01.017.004.138-.48zm-.062-.016c-.89-.216-1.783.33-2 1.22l.487.118C.433.513 1.06.132 1.678.283l.118-.486zm-2 1.22c-.214.887.327 1.78 1.21 2l.12-.484C.512 2.38.134 1.755.284 1.135l-.486-.118zm1.208 2c.133.035.283.054.416.055v-.5c-.102 0-.188-.01-.29-.038l-.126.484zm.416.055c.728 0 1.396-.486 1.597-1.224l-.483-.13c-.14.514-.606.854-1.114.854v.5zm1.597-1.224c.24-.883-.28-1.795-1.162-2.036l-.132.483c.616.168.98.804.81 1.422l.484.13z"/>
    <path id="m" d="M2.197.244l-.05-.032C1.487-.198.62.005.212.666c-.408.657-.21 1.52.444 1.934.234.152.5.225.76.225.454 0 .9-.22 1.17-.628.43-.646.257-1.522-.39-1.953z"/>
    <path id="n" d="M2.197.244L2.054.45l.004.002.14-.208zm-.05-.032l-.132.213.006.004h.01l.12-.22zM.212.666l.212.132-.21-.132zM.656 2.6l.136-.21-.003-.002-.14.212zm1.93-.403l.21.14-.21-.14zM2.34.04c-.02-.016-.048-.034-.075-.05l-.237.44c.01.005.014.008.026.017L2.34.04zM2.28 0C1.5-.484.48-.244 0 .535l.425.263C.76.254 1.473.088 2.015.425L2.28 0zM0 .534c-.48.774-.246 1.79.522 2.277l.268-.42C.253 2.05.09 1.34.424.8L0 .534zM.52 2.81c.268.17.6.263.896.265v-.5c-.228.002-.423-.05-.624-.185l-.272.42zm.896.265c.535 0 1.06-.26 1.38-.74L2.38 2.06c-.225.333-.59.514-.965.514v.5zm1.38-.74c.506-.76.3-1.79-.46-2.3l-.278.417c.53.354.675 1.075.32 1.607l.417.27z"/>
    <path id="o" d="M1.552.007C.782-.073.088.49.01 1.264L.004 1.3c-.068.773.504 1.462 1.277 1.53.05.004.09.006.13.006.72 0 1.34-.55 1.4-1.28l-1.4-.148 1.4.145C2.89.78 2.33.087 1.55.007z"/>
    <path id="p" d="M1.552.007l-.026.25.026-.25zM.01 1.264l.248.026-.25-.026zM.004 1.3l-.248-.027v.004l.248.022zM1.28 2.83l.025-.25h-.002l-.022.25zm1.525-1.275l.25.022.02-.244-.244-.026-.02.248zm-1.4-.147l.027-.248-.052.497.027-.25zm1.4.145L2.78 1.8l.25.027.024-.248-.248-.03zM1.575-.24C.67-.336-.145.326-.24 1.24l.498.05C.323.653.893.19 1.526.256l.05-.497zM-.24 1.237l-.003.035.497.052.004-.035-.498-.06zm-.004.04c-.08.91.592 1.72 1.504 1.8l.044-.497C.67 2.526.198 1.96.254 1.32l-.498-.043zm1.502 1.8c.05.006.105.008.15.008v-.5c-.037 0-.068 0-.102-.005l-.048.5zm.15.008c.848 0 1.57-.646 1.647-1.51l-.498-.042c-.053.6-.557 1.052-1.15 1.052v.5zm1.424-1.78l-1.4-.146-.05.49 1.398.15.052-.5zm-1.45.35L2.78 1.8l.05-.496-1.397-.144-.052.497zm1.672-.077C3.15.666 2.487-.15 1.577-.24l-.05.496c.634.065 1.096.634 1.03 1.27l.497.053z"/>
    <path id="q" d="M1.99.125C1.284-.195.45.12.13.83L.11.874c-.3.717.034 1.544.75 1.845.178.07.363.11.546.11.543 0 1.06-.32 1.29-.85.316-.71 0-1.54-.705-1.86z"/>
    <path id="r" d="M1.99.125l-.1.228.1-.228zM.13.83L-.098.727-.1.732.13.83zM.11.874L-.12.777l.23.097zM.86 2.72l.097-.23-.098.23zm1.836-.735l-.228-.102v.002l.228.1zM2.094-.103C1.26-.48.28-.108-.098.727l.456.205C.62.35 1.308.09 1.888.352l.206-.455zM-.1.732l-.02.045.46.195.02-.045L-.1.732zm-.02.045c-.355.843.04 1.817.882 2.173l.194-.46C.37 2.24.093 1.56.342.97l-.46-.193zM.763 2.95c.203.084.437.13.644.13v-.5c-.16.002-.295-.024-.45-.09l-.194.46zm.644.13c.64 0 1.248-.373 1.52-.996l-.46-.2c-.188.435-.613.697-1.06.697v.5zm1.518-.994c.372-.834.002-1.813-.83-2.19L1.89.353c.58.262.84.946.58 1.53l.455.203z"/>
    <path id="s" d="M2.636.726L2.61.68C2.207.013 1.343-.198.68.202S-.197 1.464.197 2.13c.262.446.732.698 1.217.698.235 0 .473-.06.69-.183.678-.384.915-1.242.532-1.92z"/>
    <path id="t" d="M2.636.726l-.22.122h.002l.218-.122zM2.61.68l.218-.122L2.824.55 2.61.68zM.68.202L.55-.012l.13.214zM.197 2.13l.216-.127V2l-.216.13zm1.908.515l-.123-.218.123.218zm.75-2.04L2.827.557 2.39.802l.027.046.437-.244zM2.825.55C2.35-.233 1.33-.482.55-.01l.26.43C1.356.09 2.065.263 2.395.81l.43-.257zM.55-.01C-.23.46-.48 1.474-.017 2.256L.413 2C.087 1.455.263.746.81.417l-.26-.43zm-.57 2.267c.31.527.863.823 1.434.823v-.5c-.4 0-.786-.207-1-.575l-.433.252zm1.434.823c.265 0 .566-.077.815-.216l-.25-.434c-.19.11-.37.152-.57.15v.5zm.815-.216c.79-.45 1.07-1.462.62-2.26L2.42.85c.315.556.12 1.262-.436 1.577l.247.435z"/>
    <path id="u" d="M2.81 1.333V1.32C2.763.54 2.1-.045 1.323.002.548.048-.042.722.003 1.498c.043.748.664 1.325 1.403 1.325.027 0 .055 0 .083-.002.77-.04 1.36-.71 1.32-1.48z"/>
    <path id="v" d="M2.81 1.333l.25-.015V1.3l-.25.033zm0-.014l-.25.01v.02l.25-.03zM1.323 0l.014.25L1.323 0zM.003 1.498l-.25.015.25-.015zM1.49 2.82l-.016-.25.015.25zM3.06 1.3l-.003-.013-.496.064.01.02.5-.06zm0 .004C3.005.39 2.222-.302 1.31-.246l.03.498c.64-.038 1.183.443 1.22 1.08l.5-.028zM1.31-.246C.392-.194-.3.6-.248 1.514l.5-.03C.214.844.702.29 1.337.25l-.03-.5zm-1.557 1.76c.052.88.782 1.56 1.653 1.56v-.5C.8 2.574.288 2.098.252 1.484l-.5.03zm1.653 1.56c.03 0 .067-.002.1-.004l-.033-.5c-.024.003-.044.003-.067.003v.5zm.098-.004c.913-.053 1.61-.838 1.557-1.752l-.49.03c.04.638-.45 1.186-1.09 1.223l.03.5z"/>
    <path id="w" d="M2.718.9l-1.31.51L2.715.895C2.435.172 1.62-.187.895.095.17.38-.185 1.198.095 1.923c.005.007.01.024.013.03.22.546.745.878 1.3.878.175 0 .35-.03.523-.1.72-.29 1.08-1.11.79-1.83z"/>
    <path id="x" d="M2.718.9L2.95.808 2.86.576l-.233.09.09.234zm-1.31.51l-.092-.234.182.466-.09-.233zM2.715.895l.092.233.232-.092-.09-.233-.24.09zm-1.82-.8l.09.234-.09-.24zm-.8 1.825l-.232.092.004.01.005.01.224-.11zm.012.03l-.243.06.004.017.006.016.232-.093zm1.823.777l-.092-.232.093.232zm.697-2.06l-1.31.51.18.465 1.31-.51-.18-.465zM1.5 1.642l1.308-.513-.183-.47-1.31.51.183.46zM2.95.805C2.616-.047 1.655-.47.803-.135L.987.33C1.58.097 2.25.39 2.484.987L2.95.805zM.803-.135C-.047.197-.47 1.158-.137 2.01l.467-.18C.097 1.235.392.563.986.33L.804-.136zm-.93 2.168l-.005-.008v-.002c-.002 0 0 0 0 .002v-.003c-.002 0-.003-.005-.005-.012l.485-.12c-.006-.027-.02-.062-.03-.08l-.447.223zm.002.01c.26.645.88 1.035 1.533 1.035v-.5c-.458 0-.89-.273-1.07-.722l-.464.187zM1.41 3.078c.195 0 .418-.042.614-.12l-.186-.463c-.148.06-.278.084-.43.083v.5zm.614-.12c.848-.337 1.26-1.3.926-2.15L2.485.99c.234.596-.056 1.27-.647 1.505l.186.464z"/>
    <path id="y" d="M2.786 1.137l-.01-.042c-.17-.758-.924-1.232-1.68-1.06C.34.205-.134.96.033 1.715c.14.66.723 1.114 1.373 1.114.094 0 .19-.01.286-.03.76-.16 1.25-.9 1.093-1.67z"/>
    <path id="z" d="M2.786 1.137l-.246.045v.006l.246-.05zm-.01-.042l-.243.056v.01l.244-.06zM1.096.035L1.15.28 1.095.034zM.034 1.715l.244-.052V1.66l-.244.055zM1.694 2.8l.047.246h.01L1.7 2.8zM3.03 1.093l-.012-.055-.487.116.01.02v.01l.49-.09zm-.01-.053C2.818.147 1.93-.41 1.04-.21l.11.49c.623-.142 1.24.247 1.383.87l.487-.11zM1.04-.21C.15-.006-.408.88-.21 1.77l.488-.11C.138 1.04.53.42 1.15.28l-.11-.49zM-.21 1.77c.165.777.85 1.31 1.617 1.31v-.5c-.534 0-1.013-.372-1.13-.915l-.488.105zm1.617 1.31c.107 0 .226-.01.334-.032l-.09-.49c-.08.017-.15.024-.24.023v.5zm.337-.032c.894-.186 1.472-1.062 1.287-1.96l-.49.102c.13.626-.27 1.24-.89 1.368l.1.49z"/>
    <path id="A" d="M1.762.045C1.01-.15.242.302.05 1.055c-.205.75.237 1.525.986 1.73.124.033.25.05.37.05.62 0 1.186-.412 1.357-1.04l.01-.03c.193-.755-.26-1.525-1.01-1.72z"/>
    <path id="B" d="M1.762.045l.063-.242-.063.242zM.05 1.055l.24.066h.002L.05 1.06zm.986 1.73l-.065.24.07-.24zm1.727-.99l-.24-.068v.003l.24.066zm.01-.03L2.53 1.7l-.003.012-.002.01.247.042zm-.95-1.962C.94-.427.037.105-.19.993l.484.124c.16-.62.788-.99 1.407-.83l.13-.484zM-.19.99c-.242.883.277 1.794 1.16 2.036l.132-.483c-.616-.168-.98-.805-.81-1.422L-.192.99zM.97 3.025c.14.037.298.058.437.058v-.5c-.106 0-.198-.01-.305-.04l-.13.482zm.437.058c.728 0 1.396-.484 1.597-1.223l-.482-.13c-.14.516-.607.854-1.115.854v.5zm1.596-1.22l.006-.018v-.04l-.5-.083v-.014.005l-.01.014.48.137zm.01-.038c.23-.885-.3-1.792-1.187-2.022L1.7.287c.617.16.99.794.83 1.414l.484.13z"/>
    <path id="C" d="M1.742.04C.986-.143.227.32.042 1.077L.04 1.09c-.183.756.282 1.51 1.037 1.694.11.027.22.04.33.04.635 0 1.213-.438 1.37-1.083C2.96.99 2.497.23 1.742.04z"/>
    <path id="D" d="M1.742.04l.06-.243H1.8L1.742.04zm-1.7 1.037l.243.062v-.01l-.242-.06zM.04 1.09l-.242-.062v.004l.242.06zm1.037 1.694l-.06.243h.002l.05-.243zm1.7-1.043l.243.06-.243-.06zM1.8-.2C.91-.415.017.13-.2 1.02l.486.12C.438.513 1.062.132 1.683.282L1.8-.203zm-2 1.217l-.002.014.484.13.003-.01-.485-.13zm-.003.018c-.216.89.333 1.78 1.22 1.995l.12-.486C.513 2.39.132 1.77.282 1.15l-.486-.118zM1.02 3.027c.124.03.263.046.386.047v-.5c-.094 0-.175-.01-.27-.033l-.117.49zm.386.047c.75 0 1.43-.515 1.614-1.274l-.486-.118c-.13.532-.606.892-1.128.892v.5zM3.02 1.8C3.235.91 2.69.013 1.8-.204l-.118.486c.62.15 1.002.777.852 1.4l.486.116z"/>
    <path id="E" d="M1.956.11C1.24-.19.416.146.116.863L.11.873c-.3.718.034 1.544.75 1.847.178.075.364.11.546.11.548 0 1.07-.323 1.296-.86l.007-.016C3.01 1.236 2.67.41 1.95.11z"/>
    <path id="F" d="M1.956.11l.097-.23-.097.23zM.116.863l.23.1V.96L.116.865zM.11.873l-.228-.1v.004l.23.097zM.86 2.72l-.098.23.098-.23zm1.842-.75l-.227-.107-.003.01.23.096zm.007-.016l.22.106v-.01l-.23-.096zM2.05-.12C1.208-.475.238-.078-.115.767l.46.193C.595.37 1.27.094 1.86.34l.192-.46zM-.114.764l-.004.01.458.2.005-.01-.46-.2zM-.12.777c-.355.844.04 1.816.882 2.173l.195-.46C.37 2.24.093 1.56.34.97L-.12.777zM.764 2.95c.203.084.437.13.643.13v-.5c-.158 0-.295-.025-.45-.09l-.193.46zm.643.13c.646 0 1.26-.38 1.526-1.014l-.46-.194c-.187.442-.615.708-1.066.708v.5zM2.93 2.075l.006-.015-.452-.213-.007.016.452.212zm.01-.025c.353-.844-.043-1.816-.886-2.17L1.86.34c.588.248.865.927.618 1.518l.462.192z"/>
    <path id="G" d="M2.778 1.097C2.606.337 1.852-.137 1.095.035.337.208-.137.962.035 1.72l.008.033c.157.645.734 1.08 1.368 1.08.11 0 .22-.012.34-.04.76-.183 1.22-.94 1.04-1.696z"/>
    <path id="H" d="M2.778 1.097l-.244.055v.004l.244-.06zM1.095.035L1.15.28 1.095.034zM.035 1.72l-.244.056.01.01.24-.066zm.008.033l.243-.06-.002-.01-.003-.01-.23.08zm1.7 1.04l.057.244-.058-.243zm1.28-1.752C2.818.15 1.93-.41 1.038-.2l.11.487C1.77.14 2.39.53 2.532 1.155l.488-.11zM1.038-.2C.146-.002-.41.888-.21 1.778l.49-.11C.136 1.04.527.42 1.15.28l-.11-.49zM-.207 1.79s0-.002 0 0 0 .007.002.01l.003.014v.008l.006.016.475-.158v.01s0 .003 0 0v-.02l-.01-.014-.49.13zm.006.028c.18.76.86 1.27 1.61 1.27v-.5c-.52 0-1-.357-1.13-.888l-.49.118zm1.61 1.27c.12 0 .26-.015.39-.045l-.12-.49c-.1.028-.18.038-.28.037v.5zm.39-.045c.89-.216 1.43-1.11 1.22-2l-.49.12c.15.62-.23 1.243-.85 1.394l.12.49z"/>
    <path id="I" d="M2.61.68C2.21.016 1.345-.2.68.203.014.605-.2 1.47.203 2.136c.002.006.013.022.016.028.26.43.72.667 1.19.667.25 0 .51-.06.74-.21.66-.41.86-1.27.45-1.94z"/>
    <path id="J" d="M2.61.68l-.214.13.002.003L2.61.68zM.68.203L.55-.012l.13.214zM.203 2.136l.223-.112-.004-.008-.005-.01-.214.13zm.016.028L0 2.29l.003.004.213-.13zm1.93.456l.13.212-.13-.212zM2.82.553C2.35-.232 1.333-.484.55-.012l.26.43C1.355.085 2.065.26 2.395.81l.428-.257zM.55-.01C-.233.46-.484 1.48-.012 2.264l.43-.258C.088 1.46.26.746.808.416L.55-.01zm-.57 2.258l.006.012.004.008.006.01.005.01c.01.002.01.002.01 0l.43-.25v-.01L.43 2.02H.424l.004.008-.45.224zm.026.047c.314.507.857.786 1.41.786v-.5c-.386 0-.766-.19-.986-.54l-.422.26zm1.41.786c.287 0 .61-.08.872-.24l-.264-.42c-.198.13-.386.18-.607.18v.5zm.872-.24c.777-.49 1.018-1.51.535-2.29l-.425.27c.337.55.17 1.26-.374 1.6l.264.43z"/>
    <path id="K" d="M2.81 1.305C2.75.53 2.077-.053 1.303.005.528.06-.053.735.003 1.51l.003.013c.053.74.67 1.3 1.398 1.3.035 0 .07-.003.105-.005.77-.057 1.35-.74 1.3-1.515z"/>
    <path id="L" d="M2.81 1.305l-.25.018.25-.018zM1.303.005l.018.248-.01-.25zM.003 1.51l-.25.018v.007l.003.008.248-.033zm.003.013l.25-.018L.253 1.5v-.008l-.248.033zM1.51 2.82l-.02-.25.02.25zm1.548-1.534c-.066-.912-.86-1.6-1.773-1.53l.037.497c.636-.047 1.19.432 1.238 1.07l.498-.037zM1.285-.244C.372-.18-.312.616-.245 1.53l.498-.037C.206.855.685.3 1.323.253l-.038-.498zm-1.53 1.79l.003.012.495-.066V1.48l-.497.065zm0-.003c.064.873.79 1.53 1.65 1.53v-.5c-.6 0-1.106-.458-1.15-1.066l-.5.036zm1.65 1.53c.04 0 .084 0 .124-.004l-.04-.5H1.4v.5zm.123-.004c.915-.07 1.598-.88 1.53-1.79l-.498.03c.047.64-.433 1.2-1.07 1.24l.038.5z"/>
    <path id="M" d="M1.53.006C.76-.064.076.51.008 1.286l-.003.033c-.057.77.524 1.45 1.3 1.51h.104c.73 0 1.34-.56 1.4-1.3C2.87.75 2.3.07 1.53 0z"/>
    <path id="N" d="M1.53.006l-.02.25.02-.25zM.008 1.286l.25.022-.25-.023zm-.003.033l-.25-.03v.01l.25.02zm1.3 1.51l-.02.25h.003l.017-.25zm1.505-1.3l-.25-.03.25.02zM1.552-.25C.642-.328-.162.35-.242 1.262l.498.045C.312.67.874.197 1.51.255l.043-.498zM-.242 1.26l-.003.033.498.046.003-.04-.498-.05zm-.004.04c-.066.91.617 1.71 1.53 1.777l.038-.5c-.636-.043-1.116-.6-1.07-1.24L-.245 1.3zm1.533 1.78l.12.005v-.5c-.027 0-.054-.002-.087-.004l-.033.5zm.12.005c.86 0 1.586-.662 1.65-1.534l-.497-.03c-.05.61-.557 1.07-1.156 1.07v.5zm1.65-1.53c.08-.913-.592-1.718-1.504-1.798L1.51.255C2.144.31 2.614.872 2.56 1.51l.497.045z"/>
    <path id="O" d="M2.794 1.116C2.634.356 1.887-.13 1.127.03L1.08.04C.322.223-.14.98.04 1.738c.153.648.73 1.082 1.366 1.082.106 0 .212-.012.32-.037.75-.168 1.23-.91 1.068-1.667z"/>
    <path id="P" d="M2.794 1.116l-.244.052.244-.052zM1.127.03l.05.246h.002L1.12.03zM1.08.04l-.052-.244-.007.002.06.243zM.04 1.738l-.245.058.244-.058zm1.686 1.046L1.67 2.54l.058.243zm1.313-1.72C2.85.17 1.97-.403 1.07-.212l.104.49c.624-.134 1.237.265 1.37.89l.49-.103zM1.07-.213l-.048.01.1.49.048-.01-.1-.49zM1.02-.2C.13.01-.415.904-.204 1.794l.487-.115c-.15-.63.233-1.25.854-1.4L1.02-.21zM-.204 1.794c.182.763.862 1.274 1.61 1.274v-.5c-.522 0-.996-.36-1.123-.89l-.487.115zm1.61 1.274c.12 0 .256-.017.378-.045l-.115-.487c-.1.02-.17.03-.27.03v.5zm.375-.045c.89-.197 1.45-1.073 1.26-1.963l-.49.106c.14.622-.26 1.233-.88 1.37l.11.488z"/>
    <path id="Q" d="M2.636.706C2.248.032 1.388-.2.716.19L.663.22C.003.63-.197 1.496.21 2.157c.268.43.727.666 1.198.666.25 0 .502-.066.73-.205.66-.395.882-1.246.498-1.914z"/>
    <path id="R" d="M2.636.706L2.42.83l.216-.124zM.716.19L.59-.03l-.012.01.137.21zM.663.22L.543 0 .53.007.664.22zM.21 2.157L0 2.29l.21-.132zm1.93.46l-.13-.214.13.215zM2.85.582C2.396-.21 1.382-.485.59-.028l.25.434C1.394.086 2.1.276 2.42.83l.43-.25zM.578-.02c-.002 0-.007.005-.016.01C.554-.005.547 0 .542 0l.244.44C.8.428.836.41.853.398L.578-.02zM.532.007C-.245.49-.482 1.512 0 2.29l.424-.263C.087 1.483.254.77.796.432L.532.007zM0 2.29c.313.507.854.784 1.408.784v-.5c-.388 0-.765-.194-.984-.547L0 2.29zm1.408.784c.282-.002.6-.086.862-.242l-.26-.427c-.198.123-.384.17-.602.17v.5zm.86-.24c.774-.464 1.037-1.467.584-2.253L2.42.83c.316.55.13 1.25-.41 1.574l.258.43z"/>
    <path id="S" d="M2.736.914C2.464.186 1.653-.183.926.09L.87.112C.15.408-.19 1.232.107 1.95c.224.544.748.872 1.3.872.177 0 .355-.033.527-.103.713-.28 1.072-1.09.802-1.81z"/>
    <path id="T" d="M2.736.914L2.97.827l-.234.087zM.926.09l.08.236.007-.002L.925.09zM.87.112l.095.23H.97L.87.11zM.107 1.95l.23-.095-.23.095zm1.827.77l-.09-.234H1.84l.094.233zM2.97.825C2.65-.03 1.694-.465.838-.145l.175.47C1.61.1 2.278.405 2.503 1L2.97.826zM.844-.145C.824-.14.788-.125.77-.12l.2.46.036-.015-.162-.47zm-.07.026C-.072.23-.473 1.2-.124 2.05l.462-.19C.094 1.263.375.588.965.343L.775-.12zm-.898 2.17c.264.64.88 1.03 1.532 1.03v-.5c-.455 0-.886-.27-1.07-.71l-.462.19zm1.532 1.03c.2 0 .424-.04.62-.12l-.188-.47c-.148.06-.28.09-.432.09v.5zm.618-.12c.84-.33 1.26-1.27.944-2.12l-.468.18c.222.6-.074 1.26-.66 1.49l.184.47z"/>
    <path id="U" d="M2.498.51C2.002-.09 1.116-.173.518.324L.5.342C-.095.845-.17 1.734.333 2.327c.278.33.675.498 1.074.498.322 0 .644-.11.908-.333.598-.497.68-1.385.183-1.983z"/>
    <path id="V" d="M2.498.51l-.192.158.192-.16zM.518.324l.16.193-.16-.193zM.5.342L.338.15H.336l.162.192zM.333 2.327l.19-.162-.19.162zm1.982.165l-.16-.192.16.192zM2.69.35C2.108-.356 1.063-.454.36.132l.318.384c.49-.408 1.22-.34 1.628.15L2.69.35zM.36.13L.337.15l.32.385.02-.017-.32-.386zM.336.15C-.362.74-.45 1.79.142 2.487l.382-.323C.11 1.677.172.944.66.534L.335.15zM.142 2.487c.328.388.796.587 1.265.587v-.5c-.33 0-.654-.14-.883-.41l-.382.323zm1.265.587c.362-.003.767-.14 1.07-.392L2.154 2.3c-.226.198-.466.278-.747.275v.5zm1.068-.39c.704-.586.8-1.63.216-2.336l-.38.318c.41.493.34 1.223-.15 1.632l.32.384z"/>
    <path id="W" d="M2.342.35C1.76-.162.872-.105.357.48L.34.498c-.506.586-.44 1.466.144 1.977.265.232.593.345.92.345.394 0 .786-.164 1.065-.48.51-.585.45-1.475-.13-1.99z"/>
    <path id="X" d="M2.342.35l.166-.186-.166.187zM.357.48L.17.313l-.01.01.195.155zM.34.498L.53.66.533.657.34.497zm.144 1.977l-.164.188.164-.188zM2.47 2.34l-.19-.166.19.165zM2.507.163C1.82-.442.774-.377.167.313l.378.33C.967.163 1.698.116 2.177.54l.33-.376zM.162.323C.162.32.164.32.164.32V.317C.164.32.162.323.16.325L.155.33.152.333.15.337l.383.32L.54.65.543.644.547.64.553.635.163.322zm-.01.01c-.598.692-.518 1.73.168 2.33l.33-.376C.166 1.865.113 1.142.53.66L.152.333zm.168 2.33c.304.26.716.403 1.085.407v-.5c-.286.003-.53-.08-.756-.284l-.33.377zm1.085.407c.462 0 .923-.192 1.252-.566l-.376-.33c-.22.26-.55.396-.87.396v.5zm1.252-.566c.604-.688.537-1.735-.15-2.34l-.33.375c.48.42.526 1.15.104 1.63l.38.33z"/>
    <path id="Y" d="M2.71.878C2.416.158 1.596-.19.876.104.156.397-.188 1.218.104 1.938c.002.005.01.023.01.028.227.54.75.865 1.3.865.18 0 .365-.03.54-.11.718-.3 1.055-1.12.755-1.84z"/>
    <path id="Z" d="M2.71.878l-.233.094v.003L2.71.878zM.103 1.938l.237-.08-.002-.007H.335l-.23.1zm.01.028l-.235.086.004.01.23-.096zm1.84.755l.098.24-.09-.23zM2.94.79C2.597-.062 1.63-.472.783-.128L.97.336c.593-.24 1.267.044 1.507.636L2.94.785zM.783-.128c-.848.345-1.255 1.312-.91 2.16l.462-.188C.095 1.252.38.576.97.336L.784-.128zm-.916 2.145c0 .004.002.007.003.01l.002.005c0 .004.003.008.004.01 0 .004.002.007.003.01 0 .002 0 0 0 0l.47-.17c0-.004-.01-.006-.01-.007v-.013c0-.003 0-.005-.01-.007v.004l-.48.15zm.017.046c.266.634.88 1.018 1.53 1.018v-.5c-.454 0-.884-.26-1.07-.71l-.46.2zm1.53 1.018c.204 0 .437-.04.638-.12L1.86 2.5c-.16.063-.29.09-.45.09v.5zm.638-.12c.844-.35 1.24-1.32.887-2.17l-.47.19c.24.59-.03 1.27-.62 1.52l.19.46z"/>
    <path id="aa" d="M2.155.212C1.495-.198.628.005.22.667l-.01.01C-.2 1.34.008 2.202.67 2.613c.23.142.483.21.736.21.472 0 .937-.24 1.204-.67.41-.66.207-1.53-.453-1.94z"/>
    <path id="ab" d="M2.155.212l-.132.213.132-.213zM.22.667l.206.14.005-.01-.21-.13zm-.01.01L.005.537 0 .547l.21.13zm.46 1.936l-.132.212.132-.212zm1.94-.46l-.213-.132.213.14zM2.288 0C1.51-.484.488-.245.005.535L.43.798C.77.254 1.48.088 2.024.425L2.287 0zM.01.526L.004.538l.414.28.008-.01L.012.525zM0 .546c-.485.78-.24 1.795.536 2.278L.8 2.4C.255 2.06.087 1.35.423.81L0 .546zm.536 2.278c.262.16.583.245.868.247v-.5c-.22.01-.408-.04-.604-.17l-.27.43zm.868.247c.555 0 1.102-.28 1.416-.78l-.425-.26c-.22.36-.6.55-.99.55v.5zm1.416-.78c.483-.77.244-1.8-.533-2.28l-.264.42c.543.34.71 1.05.372 1.6l.425.27z"/>
    <path id="ac" d="M0 15V0l13.5 7L0 15z"/>
    <path id="ad" d="M70.594 53.69h-2.23c-.008-.01-.013-.02-.02-.03l-23.28-34.595c-.486-.724-1.183-1.26-1.978-1.552v-3.926l9.28-5.772c.44-.277.69-.774.653-1.294-.04-.51-.36-.97-.84-1.18L42.25.12c-.436-.192-.938-.152-1.337.108-.4.26-.64.704-.64 1.18v16.104c-.794.292-1.49.828-1.978 1.553l-9.535 14.17-2.268-3.37c-.76-1.13-2.025-1.803-3.384-1.803-1.36 0-2.625.673-3.385 1.803L3.69 53.69H1.407C.63 53.69 0 54.32 0 55.098c0 .778.63 1.41 1.406 1.41h69.187c.777 0 1.406-.632 1.406-1.41 0-.778-.63-1.408-1.41-1.408zM43.086 3.574l5.544 3.264-5.544 3.423V3.58zM7.083 53.69l14.972-22.25c.24-.356.624-.56 1.053-.56.43 0 .813.204 1.053.56l2.91 4.315-4.98 7.408c-.43.645-.26 1.52.38 1.955.65.435 1.52.264 1.95-.38l16.22-24.1c.24-.356.63-.56 1.05-.56.43 0 .82.204 1.06.56l22.24 33.05H7.09v.002z"/>
    <path id="ae" d="M68.363 53.69l-.212.134.08.116h.14v-.25zm-.02-.03l-.206.138.002.003.2-.14zM45.066 19.064l.208-.14-.208.14zm-1.98-1.552h-.25v.174l.165.06.09-.234zm0-3.926l-.13-.212-.12.073v.14h.25zm9.28-5.772l.13.213h.003l-.14-.213zm.654-1.294l-.25.02.25-.02zm-.834-1.185l-.117.22v.008l.1-.228zM42.25.12l.115-.22-.007-.004-.007-.003-.1.228zm-1.338.11l-.137-.21.137.21zm-.64 17.284l.087.235.16-.06v-.18h-.25zm-1.978 1.553l.208.14-.208-.14zm-9.535 14.17l-.21.14.2.308.2-.31-.21-.138zm-2.27-3.37l.21-.14-.21.14zm-6.77 0l.21.14-.21-.14zM3.69 53.69v.25h.132l.074-.11-.21-.14zM43.08 3.574l.128-.216-.376-.222v.438h.25zm5.545 3.264l.13.212.352-.218-.358-.21-.13.216zM43.08 10.26h-.25v.45l.383-.233-.132-.213zm-36 43.43h-.25v.82l.457-.68-.207-.14zm14.97-22.25l-.205-.14.207.14zm2.108 0l.21-.14-.208.14zm2.905 4.317l.208.14.1-.14-.09-.14-.2.14zm-4.984 7.408l.21.14-.21-.14zm.38 1.955l.14-.208-.14.21zm1.95-.38l-.21-.14.2.14zm16.22-24.1l.2.14-.21-.14zm2.1 0l.21-.14-.21.14zm22.24 33.05v.25h.47l-.26-.39-.21.14zm-57.89 0v-.25h-.25v.25h.25zm63.51-.25h-2.23v.5h2.23v-.5zm-2.02.117v-.003l-.03-.037-.41.285c-.01-.002-.01-.006-.01-.002v.01s.01.01.01.018l.424-.268zm-.02-.037L45.27 18.924l-.414.28 23.28 34.592.412-.28zM45.27 18.924c-.512-.756-1.27-1.34-2.1-1.648l-.172.47c.76.276 1.396.764 1.86 1.457l.414-.28zm-1.93-1.414v-3.925h-.5v3.926h.5zm-.12-3.71l9.276-5.772-.264-.425-9.278 5.772.264.425zm9.278-5.773c.518-.327.815-.912.77-1.524l-.498.037c.03.426-.176.836-.54 1.064l.268.423zm.77-1.523c-.043-.612-.42-1.15-.98-1.398l-.204.457c.39.174.655.55.685.976l.49-.04zm-.966-1.39L42.365-.1l-.232.442 9.936 5.214.23-.443zm-9.95-5.22c-.514-.23-1.106-.18-1.576.124l.273.42c.32-.214.74-.248 1.09-.09l.2-.455zM40.776.02c-.47.304-.752.827-.752 1.387h.5c0-.39.197-.757.525-.97l-.28-.42zm-.752 1.387v11.38h.5V1.407h-.5zm0 11.38v.044h.5v-.04h-.5zm0 .044v4.68h.5v-4.68h-.5zm.163 4.45c-.83.31-1.587.89-2.1 1.65l.416.28c.46-.69 1.096-1.18 1.857-1.45l-.172-.47zm-2.1 1.65L28.553 33.1l.414.28 9.536-14.17-.415-.28zm-9.12 14.17L26.7 29.73l-.415.28 2.268 3.37.414-.28zM26.7 29.73c-.807-1.2-2.15-1.915-3.592-1.915v.503c1.276 0 2.463.632 3.177 1.692l.415-.28zm-3.592-1.915c-1.444.003-2.786.718-3.593 1.916l.415.28c.714-1.06 1.9-1.69 3.178-1.69v-.49zm-3.593 1.916L3.483 53.55l.415.28L19.93 30.003l-.415-.28zM3.69 53.44H1.407v.5H3.69v-.5zm-2.284 0c-.914 0-1.656.742-1.656 1.658h.5c0-.64.518-1.158 1.156-1.158v-.5zM-.25 55.098c0 .916.742 1.66 1.656 1.66v-.5c-.638 0-1.156-.52-1.156-1.16h-.5zm1.656 1.66h3.03v-.5h-3.03v.5zm3.03 0h.003v-.5h-.01v.5zm.003 0v-.5.5zm0 0h66.15v-.5H4.44v.5zm66.15 0c.91 0 1.65-.744 1.65-1.66h-.5c0 .64-.52 1.16-1.16 1.16v.5zm1.65-1.66c0-.916-.74-1.658-1.66-1.658v.5c.64 0 1.15.518 1.15 1.158h.5zM42.96 3.788l5.543 3.265.254-.43-5.544-3.265-.253.43zm5.538 2.837l-5.543 3.423.263.425L48.76 7.05l-.262-.425zm-5.162 3.636V3.58h-.5v6.687h.5zM7.29 53.83l14.973-22.25-.415-.28L6.876 53.55l.414.28zm14.972-22.25c.195-.287.5-.45.846-.45v-.5c-.512 0-.973.245-1.26.67l.414.28zm.846-.45c.346 0 .652.163.845.45l.415-.28c-.286-.425-.748-.67-1.26-.67v.5zm.845.45l2.904 4.315.415-.28-2.904-4.315-.415.28zm2.904 4.035l-4.985 7.408.415.28 4.985-7.408-.415-.28zm-4.985 7.408c-.51.76-.31 1.79.448 2.302l.28-.414c-.53-.35-.67-1.07-.313-1.6l-.415-.28zm.448 2.302c.758.513 1.788.312 2.3-.448l-.417-.28c-.356.53-1.074.672-1.603.314l-.28.42zm2.298-.448l16.218-24.1-.415-.278-16.21 24.09.42.28zm16.218-24.1c.193-.286.5-.45.844-.45v-.5c-.51 0-.973.247-1.26.672l.416.27zm.844-.45c.346 0 .652.164.846.45l.415-.278c-.28-.43-.74-.68-1.26-.68v.5zm.846.45l22.24 33.052.416-.28-22.24-33.05-.416.27zM64.974 53.44H7.084v.5h57.89v-.5zm-58.14.25h.5-.5z"/>
    <path id="af" d="M2.812 1.41c0 .777-.63 1.407-1.406 1.407C.63 2.817 0 2.187 0 1.41 0 .63.63 0 1.406 0c.777 0 1.406.63 1.406 1.41z"/>
    <path id="ag" d="M1.406 0v-.25V0zm1.156 1.41c0 .64-.517 1.157-1.156 1.157v.5c.916 0 1.656-.743 1.656-1.658h-.5zM1.406 2.566C.768 2.566.25 2.05.25 1.41h-.5c0 .914.74 1.657 1.656 1.657v-.5zM.25 1.41C.25.767.768.25 1.406.25v-.5C.49-.25-.25.492-.25 1.41h.5zM1.406.25c.638 0 1.156.518 1.156 1.16h.5c0-.917-.74-1.66-1.656-1.66v.5z"/>
  </defs>
</svg>
