<svg xmlns="http://www.w3.org/2000/svg" width="68" height="62" viewBox="0 0 68 62" xmlns:xlink="http://www.w3.org/1999/xlink">
  <use fill="#EB3441" xlink:href="#a" transform="translate(47.247 46.057)"/>
  <use fill="#002543" xlink:href="#b" transform="translate(55.637 51.15)"/>
  <use fill="#002543" xlink:href="#c" transform="translate(46.363 31)"/>
  <use fill="#002543" xlink:href="#d"/>
  <defs>
    <path id="a" d="M1.325 13.73L0 0h19.43l-1.77 13.73H1.325z"/>
    <path id="b" d="M1.546 3.1c.853 0 1.545-.694 1.545-1.55C3.09.694 2.4 0 1.55 0 .692 0 0 .694 0 1.55 0 2.406.692 3.1 1.546 3.1z"/>
    <path id="c" d="M20.092 12.4h-1.546V7.75C18.546 3.477 15.08 0 10.82 0 6.557 0 3.09 3.476 3.09 7.75v4.65H1.547C.69 12.4 0 13.093 0 13.95v12.4C0 28.914 2.08 31 4.637 31H17c2.557 0 4.637-2.086 4.637-4.65v-12.4c0-.857-.69-1.55-1.545-1.55zM6.182 7.75c0-2.563 2.08-4.65 4.637-4.65 2.55 0 4.63 2.087 4.63 4.65v4.65H6.18V7.75zm12.365 18.6c0 .856-.692 1.55-1.546 1.55H4.64c-.853 0-1.545-.694-1.545-1.55V15.5H18.55v10.85z"/>
    <path id="d" d="M61.434 26.104C59.044 10.984 46.212.006 30.92.002L30.91 0C13.866 0 0 13.906 0 31c0 17.047 13.792 30.916 30.773 30.992.045 0 .09.008.136.008l.03-.003c3.32-.003 6.6-.533 9.72-1.576.81-.27 1.25-1.14.98-1.96-.26-.76-1.05-1.17-1.82-.99 1.02-1.14 1.984-2.46 2.86-3.99.424-.74.17-1.69-.573-2.11-.74-.422-1.68-.17-2.105.577-2.168 3.79-4.81 6.12-7.566 6.77V46.5h9.272c.853 0 1.544-.692 1.544-1.55 0-.857-.69-1.55-1.547-1.55h-9.27V32.55h13.91c.86 0 1.55-.693 1.55-1.55v-3.1c0-.016-.007-.028-.01-.044 0-.014.008-.026.008-.04-.18-3.266-.645-6.352-1.327-9.217h9.26c1.21 2.46 2.096 5.14 2.54 7.98.12.76.78 1.31 1.526 1.31.08 0 .162-.01.243-.02.84-.14 1.415-.93 1.28-1.78zM21.876 4.64c-2.384 2.682-4.358 6.403-5.743 10.86h-3.77c-.853 0-1.545.692-1.545 1.55 0 .857.69 1.55 1.546 1.55h2.92c-.778 3.334-1.232 6.992-1.333 10.85H3.17c.635-11.53 8.262-21.198 18.706-24.81zM7.796 46.5h8.36c1.41 4.516 3.393 8.22 5.746 10.868-5.8-2-10.748-5.848-14.106-10.868zm21.568 12.2c-3.956-.95-7.665-5.477-9.96-12.2h9.96v12.2zm0-15.3H6.028c-1.643-3.302-2.643-6.97-2.858-10.85h10.793c.058 2.17.204 4.327.503 6.42.11.773.77 1.33 1.528 1.33.073 0 .147-.005.22-.015.847-.12 1.434-.907 1.313-1.755-.278-1.947-.414-3.957-.47-5.98h7.67c.856 0 1.546-.693 1.546-1.55 0-.857-.69-1.55-1.545-1.55H17.04c.112-3.86.63-7.53 1.478-10.85h10.846v24.8zM30.91 6.2c-.855 0-1.546.692-1.546 1.55v7.75h-9.94c2.53-7.42 6.778-12.4 11.486-12.4 4.723 0 9.022 4.94 11.573 12.4H32.456V7.75c0-.857-.69-1.55-1.545-1.55zm13.91 23.25H32.453V18.6h10.952c.732 2.875 1.227 6.022 1.412 9.348l-.002 1.502zm.9-13.95c-1.41-4.463-3.404-8.215-5.805-10.898 5.823 1.975 10.79 5.814 14.158 10.9H45.72z"/>
  </defs>
</svg>
