<svg xmlns="http://www.w3.org/2000/svg" width="51" height="70" viewBox="0 0 51 70" xmlns:xlink="http://www.w3.org/1999/xlink">
  <use fill="#EB3441" xlink:href="#a" transform="translate(10.98 50.867)"/>
  <g fill="#002543" transform="translate(23.97 26.658)">
    <use xlink:href="#b"/>
    <use xlink:href="#c"/>
  </g>
  <g fill="#002543" transform="translate(13.1 7.004)">
    <use xlink:href="#d"/>
    <use xlink:href="#e"/>
  </g>
  <g fill="#002543" transform="translate(23.97 33.707)">
    <use xlink:href="#f"/>
    <use xlink:href="#g"/>
  </g>
  <g fill="#002543" transform="translate(23.97 40.756)">
    <use xlink:href="#h"/>
    <use xlink:href="#i"/>
  </g>
  <g fill="#002543" transform="translate(1 1)">
    <use xlink:href="#j"/>
    <use xlink:href="#k"/>
  </g>
  <g fill="#002543" transform="translate(12.85 17.598)">
    <use xlink:href="#l"/>
    <use xlink:href="#m"/>
  </g>
  <defs>
    <path id="a" d="M0 10.88L14.972 0l15.88 10.88H0z"/>
    <path id="b" d="M2.64 1.328c0 .733-.59 1.328-1.32 1.328C.59 2.656 0 2.06 0 1.328 0 .594.59 0 1.32 0c.73 0 1.32.594 1.32 1.328z"/>
    <path id="c" d="M1.32 0v.375V0zm.945 1.328c0 .528-.425.953-.945.953v.75c.938 0 1.695-.76 1.695-1.7h-.75zm-.945.953c-.52 0-.945-.42-.945-.95h-.75c0 .94.756 1.71 1.695 1.71v-.75zm-.945-.95C.375.8.8.38 1.32.38v-.75C.382-.375-.375.39-.375 1.328h.75zM1.32.38c.52 0 .945.424.945.953h.75c0-.94-.757-1.704-1.695-1.703v.75z"/>
    <path id="d" d="M2.64 1.328c0 .734-.59 1.328-1.32 1.328C.59 2.656 0 2.06 0 1.328 0 .595.59 0 1.32 0c.73 0 1.32.595 1.32 1.328z"/>
    <path id="e" d="M2.265 1.328c0 .53-.425.953-.945.953v.75c.938 0 1.695-.76 1.695-1.7h-.75zm-.945.953c-.52 0-.945-.42-.945-.95h-.75c0 .94.757 1.71 1.695 1.71v-.75zm-.945-.95C.375.8.8.38 1.32.38v-.75c-.938 0-1.695.763-1.695 1.7h.75zM1.32.38c.52 0 .945.425.945.953h.75c0-.94-.757-1.703-1.695-1.703v.75z"/>
    <path id="f" d="M2.64 1.328c0 .734-.59 1.328-1.32 1.328C.59 2.656 0 2.062 0 1.328 0 .594.59 0 1.32 0c.73 0 1.32.594 1.32 1.328z"/>
    <path id="g" d="M2.265 1.328c0 .53-.425.953-.945.953v.75c.938 0 1.695-.76 1.695-1.7h-.75zm-.945.953c-.52 0-.945-.42-.945-.95h-.75c0 .94.757 1.71 1.695 1.71v-.75zm-.945-.95C.375.8.8.38 1.32.38v-.75C.382-.375-.375.39-.375 1.328h.75zM1.32.38c.52 0 .945.424.945.953h.75c0-.94-.757-1.703-1.695-1.703v.75z"/>
    <path id="h" d="M2.64 1.328c0 .733-.59 1.328-1.32 1.328C.59 2.656 0 2.06 0 1.328 0 .594.59 0 1.32 0c.73 0 1.32.594 1.32 1.328z"/>
    <path id="i" d="M1.32 0v.375V0zm.945 1.328c0 .528-.425.953-.945.953v.75c.938 0 1.695-.76 1.695-1.7h-.75zm-.945.953c-.52 0-.945-.42-.945-.95h-.75c0 .94.756 1.71 1.695 1.71v-.75zm-.945-.95C.375.8.8.38 1.32.38v-.75C.382-.375-.375.39-.375 1.328h.75zM1.32.38c.52 0 .945.424.945.953h.75c0-.94-.757-1.703-1.695-1.703v.75z"/>
    <path id="j" d="M35.843 33.832c4.528-2.93 7.23-7.908 7.23-13.316v-11.9C46.406 8.23 49 5.376 49 1.926v-.6C49 .596 48.41 0 47.68 0H1.32C.59 0 0 .595 0 1.328v.598c0 3.466 2.617 6.33 5.968 6.694v11.896c0 5.41 2.703 10.386 7.23 13.315.063.04.094.1.094.17 0 .08-.03.13-.093.17-4.53 2.93-7.24 7.91-7.24 13.32v11.85C2.67 59.35 0 62.05 0 65.37v1.31C0 67.408.59 68 1.32 68h46.36c.73 0 1.32-.595 1.32-1.328v-1.31c0-3.3-2.653-5.987-5.926-6.02v-11.86c0-5.41-2.703-10.385-7.23-13.315-.062-.04-.093-.096-.093-.168 0-.08.04-.13.1-.17zm7.17 28.164c1.84 0 3.337 1.5 3.347 3.348H2.64c.01-1.847 1.508-3.348 3.347-3.348h37.026zM12.917 59.34l11.603-9.422 11.576 9.422h-23.18zm21.498-22.937c3.77 2.438 6.018 6.58 6.018 11.08v11.062l-15.324-11.3c-.37-.184-.81-.184-1.18 0L8.61 58.525v-11.04c0-4.5 2.25-8.643 6.017-11.08.818-.53 1.305-1.428 1.305-2.403 0-.976-.487-1.873-1.305-2.403-3.768-2.44-6.018-6.58-6.018-11.08V7.56c.01-.074.02-.15.02-.23 0-.734-.59-1.328-1.32-1.328h-.62c-1.99 0-3.65-1.446-3.99-3.348h43.59c-.35 1.902-2 3.348-3.99 3.348H19.51c-.73 0-1.32.594-1.32 1.328 0 .733.59 1.328 1.32 1.328h20.92v11.857c0 4.5-2.25 8.642-6.017 11.08-.817.53-1.305 1.427-1.305 2.404 0 .97.487 1.87 1.304 2.4z"/>
    <path id="k" d="M35.843 33.832l-.204-.315h-.01l.2.315zm7.23-25.217l-.042-.373-.33.04v.333h.38zM5.97 8.62h.375v-.337l-.334-.036-.04.373zm7.23 25.21l-.203.316H13l.2-.315zm0 .34l.205.313-.204-.314zM5.97 59.34l.002.375h.373v-.375H5.97zm37.106 0H42.7v.372l.37.004.004-.375zm-7.23-25.172l-.205.315.21-.315zM46.36 65.344v.375h.377l-.002-.38h-.375zm-43.72 0l-.375-.002-.002.377h.377v-.38zm4.646-3.348l.04-.372-.02-.003h-.02V62zm.003 0l-.05.374.04.004.04-.004-.04-.373zm0 0v-.375h-.02l-.02.01.04.38zm5.62-2.656l-.24-.29-.82.665h1.05v-.375zm11.6-9.422l.23-.29-.24-.193-.24.192.233.29zm11.58 9.422v.375h1.05l-.82-.666-.24.29zm-1.68-22.937l.2-.315-.21.315zm6.01 22.142l-.23.302.6.44v-.742h-.376zm-15.32-11.3l.22-.3-.03-.02-.03-.014-.17.34zm-1.18 0l-.17-.334-.03.02-.027.02.227.3zM8.61 58.525h-.376v.743l.598-.44-.223-.3zm6.017-22.12l-.203-.316.203.31zm0-4.807l.204-.314-.2.314zM8.61 7.562l-.37-.065-.006.032v.03h.375zM2.705 2.656V2.28h-.448l.08.442.368-.066zm43.59 0l.368.067.08-.442h-.45v.38zM40.432 8.66h.375v-.375h-.375v.375zm-6.018 22.937l.204.315-.205-.315zm1.632 2.55c4.635-3 7.402-8.096 7.402-13.63h-.75c0 5.28-2.64 10.14-7.06 13l.407.63zm7.402-13.63V8.614h-.75v11.9h.75zm-.333-11.53c3.52-.406 6.258-3.418 6.258-7.06h-.75c0 3.26-2.452 5.953-5.594 6.315l.08.745zm6.258-7.06v-.6h-.75v.6h.75zm0-.6c0-.938-.757-1.702-1.695-1.702v.75c.52 0 .945.424.945.953h.75zm-1.693-1.7H1.32v.75h46.36v-.75zm-46.36 0C.382-.376-.375.39-.375 1.327h.75C.375.8.8.377 1.32.377v-.75zm-1.695 1.7v.6h.75v-.6h-.75zm0 .6c0 3.657 2.762 6.68 6.303 7.065l.08-.745C2.85 7.903.376 5.2.376 1.927h-.75zM5.593 8.62v11.896h.75V8.62h-.75zm0 11.896c0 5.536 2.767 10.632 7.402 13.63l.408-.63c-4.42-2.86-7.06-7.718-7.06-13h-.75zm7.404 13.63c-.015-.008-.038-.028-.057-.062-.02-.034-.023-.065-.023-.084h.75c0-.2-.097-.376-.265-.484l-.405.63zm-.08-.146c0-.02.005-.05.023-.084.02-.034.042-.053.055-.062l.408.63c.166-.108.264-.282.264-.484h-.75zm.08-.146c-4.637 2.998-7.404 8.095-7.404 13.63h.75c0-5.282 2.64-10.14 7.06-13l-.408-.63zm-7.404 13.63V59.34h.75V47.484h-.75zm.374 11.48c-3.5.013-6.342 2.88-6.342 6.4h.75c0-3.11 2.51-5.64 5.595-5.65l-.003-.75zm-6.342 6.4v1.308h.75v-1.31h-.75zm0 1.308c0 .94.757 1.703 1.695 1.703v-.75c-.52 0-.945-.424-.945-.953h-.75zm1.695 1.703h46.36v-.75H1.32v.75zm46.36 0c.938 0 1.695-.765 1.695-1.703h-.75c0 .528-.425.953-.945.953v.75zm1.695-1.703v-1.31h-.75v1.31h.75zm0-1.31c0-3.503-2.816-6.36-6.297-6.396l-.008.75c3.066.032 5.555 2.55 5.555 5.646h.75zm-5.926-6.02v-11.86h-.75V59.34h.75zm0-11.858c0-5.536-2.77-10.632-7.41-13.63l-.41.63c4.42 2.86 7.06 7.718 7.06 13h.75zm-7.41-13.63c.01.01.04.03.05.062.02.034.02.065.02.084h-.75c0 .2.09.375.26.483l.402-.63zm.08.146c0 .02-.01.05-.03.084-.02.033-.04.052-.06.062l-.41-.628c-.17.107-.26.28-.26.482h.75zM43 62.37c1.63 0 2.963 1.333 2.972 2.977l.75-.005c-.013-2.05-1.676-3.72-3.723-3.72v.75zm3.347 2.6H2.64v.75h43.72v-.75zM3 65.347c.01-1.644 1.34-2.976 2.973-2.976v-.75c-2.05 0-3.71 1.67-3.723 3.73l.75.01zm2.98-2.977h1.3v-.75h-1.3v.75zm1.257 0h.005l.083-.74H7.32l-.083.744zm.084 0h.01l-.07-.742.08.747zm-.03 0h35.72v-.75H7.3v.75zm5.86-2.74l11.61-9.42-.47-.58-11.6 9.42.48.58zm11.13-9.42l11.58 9.42.48-.58-11.57-9.42-.472.58zm11.82 8.76H12.92v.75H36.1v-.75zm-1.89-22.25c3.66 2.37 5.85 6.394 5.85 10.768h.75c0-4.627-2.31-8.888-6.19-11.396l-.41.63zm5.85 10.77v11.06h.75V47.49h-.75zm.6 10.76l-15.32-11.3-.44.604 15.32 11.3.444-.606zM25.28 46.91c-.475-.238-1.035-.238-1.51 0l.336.67c.264-.13.574-.13.838.002l.34-.67zm-1.565.034L8.387 58.224l.445.604 15.325-11.28-.445-.604zM8.985 58.526V47.484h-.75v11.042h.75zm0-11.042c0-4.374 2.185-8.397 5.846-10.767l-.4-.63c-3.87 2.51-6.19 6.77-6.19 11.397h.75zm5.846-10.767c.93-.597 1.48-1.615 1.48-2.716h-.75c0 .85-.42 1.63-1.13 2.09l.41.63zM16.31 34c0-1.1-.55-2.12-1.476-2.716l-.406.63c.71.46 1.133 1.238 1.133 2.088h.75zm-1.476-2.716c-3.66-2.37-5.846-6.394-5.846-10.767h-.75c0 4.627 2.314 8.89 6.19 11.396l.407-.63zm-5.85-10.768V7.562h-.75v12.954h.75zM8.98 7.626c.014-.087.025-.197.025-.294h-.75c0 .06-.004.105-.015.165l.74.13zm.025-.294c0-.94-.757-1.703-1.695-1.703v.75c.52 0 .945.42.945.95h.75zM7.31 5.63h-.616v.75h.616v-.75zm-.616 0c-1.8 0-3.307-1.312-3.62-3.04l-.737.132C2.71 4.798 4.52 6.38 6.694 6.38v-.75zm-3.988-2.6h43.59v-.75H2.706v.75zm43.22-.44c-.312 1.728-1.818 3.04-3.62 3.04v.75c2.175 0 3.984-1.582 4.358-3.657l-.738-.134zm-3.62 3.04h-22.79v.75h22.79v-.75zm-22.79 0c-.94 0-1.696.763-1.696 1.702h.75c0-.53.424-.953.945-.953v-.75zm-1.696 1.7c0 .938.756 1.703 1.695 1.703v-.75c-.52 0-.945-.425-.945-.953h-.75zm1.695 1.703h20.918v-.75H19.515v.75zm20.543-.375v11.857h.75V8.66h-.75zm0 11.857c0 4.374-2.185 8.397-5.846 10.766l.407.63c3.87-2.5 6.18-6.77 6.18-11.39h-.75zM34.212 31.28c-.925.6-1.477 1.616-1.477 2.72h.75c0-.85.424-1.63 1.134-2.09l-.41-.63zM32.735 34c0 1.1.552 2.118 1.477 2.715l.407-.63c-.71-.46-1.14-1.237-1.14-2.086h-.75z"/>
    <path id="l" d="M23.56 0h-7.945c-1.546 0-2.5.607-3.04 1.14C11.827.47 10.75 0 9.265 0H1.32C.59 0 0 .595 0 1.328c0 .734.59 1.328 1.32 1.328h7.945c1.817 0 2.053 1.124 2.07 1.612v.016c.02.722.605 1.295 1.32 1.295h.017c.722-.01 1.304-.61 1.304-1.33v-.03c.003-.59.22-1.57 1.64-1.57h7.944c.73 0 1.32-.6 1.32-1.33 0-.73-.59-1.32-1.32-1.32z"/>
    <path id="m" d="M12.575 1.14l-.25.28.262.235.25-.248-.262-.267zm-1.24 3.128h.376v-.013l-.37.013zm0 .016h-.375v.01l.375-.01zm1.337 1.295v.37h.004l-.004-.38zm1.303-1.36H13.6v.02l.375-.02zM24.88 1.33h-.375.375zM23.56-.375h-7.945v.75h7.946v-.75zm-7.945 0c-1.656 0-2.702.654-3.304 1.248l.53.534C13.32.934 14.18.375 15.62.375v-.75zM12.825.86c-.82-.736-1.99-1.235-3.56-1.235v.75c1.4 0 2.386.44 3.06 1.044l.5-.56zM9.265-.374H1.32v.75h7.945v-.75zm-7.945 0C.38-.374-.375.39-.375 1.328h.75C.375.8.8.375 1.32.375v-.75zM-.375 1.328c0 .94.757 1.703 1.695 1.703v-.75c-.52 0-.945-.42-.945-.95h-.75zM1.32 3.03h7.945v-.75H1.32v.75zm7.945 0c.826 0 1.223.253 1.424.49.23.257.26.54.27.76l.75-.025c-.01-.267-.11-.79-.45-1.218-.38-.446-1.01-.756-2-.756v.75zm1.695 1.24v.016h.75V4.27h-.75zm0 .025c.024.923.774 1.66 1.695 1.66v-.75c-.51 0-.932-.408-.945-.93l-.75.02zm1.695 1.66h.017v-.75h-.017v.75zm.02 0c.93-.01 1.676-.772 1.676-1.702h-.75c0 .525-.41.948-.93.954l.01.75zm1.676-1.702V4.21l-.75.035c0-.002 0-.002 0 0v.01h.75zm0-.024c.01-.26.06-.56.22-.79.15-.21.44-.41 1.05-.41v-.75c-.8 0-1.33.28-1.65.71-.3.41-.36.89-.36 1.22h.75zm1.27-1.2h7.95v-.75h-7.95v.75zm7.95 0c.94 0 1.7-.77 1.7-1.71h-.75c0 .53-.42.95-.94.95v.75zm1.7-1.7c0-.94-.75-1.71-1.69-1.71v.75c.52 0 .95.42.95.95h.75z"/>
  </defs>
</svg>
